<svg width="587" height="176" viewBox="0 0 587 176" fill="none" xmlns="http://www.w3.org/2000/svg">
<circle cx="39.0519" cy="35.174" r="25.9347" fill="url(#paint0_linear_303_82)"/>
<mask id="mask0_303_82" style="mask-type:luminance" maskUnits="userSpaceOnUse" x="14" y="32" width="50" height="5">
<path d="M39.7475 36.5894L39.5944 36.4363C39.5944 36.4363 39.5944 36.4363 39.7475 36.5894ZM39.5944 36.2832C39.4413 36.2832 39.5944 36.2832 39.5944 36.2832C39.4413 36.2832 39.5944 36.2832 39.5944 36.2832ZM39.4413 36.2832C39.4413 36.1301 39.4413 36.1301 39.4413 36.2832C39.4413 36.1301 39.4413 36.1301 39.4413 36.2832ZM39.4413 36.1301C39.2882 36.1301 39.4413 36.1301 39.4413 36.1301C39.2882 36.1301 39.4413 36.1301 39.4413 36.1301ZM39.2882 35.8239C39.1351 35.8239 39.2882 35.8239 39.2882 35.8239C39.1351 35.8239 39.2882 35.8239 39.2882 35.8239ZM38.982 35.6708C38.8289 35.5177 38.982 35.6708 38.982 35.6708C38.8289 35.5177 38.982 35.6708 38.982 35.6708ZM38.8289 35.3646C38.6759 35.3646 38.6759 35.3646 38.8289 35.3646C38.6759 35.3646 38.6759 35.3646 38.8289 35.3646ZM38.6758 35.3646C38.5228 35.3646 38.6758 35.3646 38.6758 35.3646C38.5228 35.3646 38.6758 35.3646 38.6758 35.3646ZM38.3697 35.2115C38.3697 35.0584 38.3697 35.2115 38.3697 35.2115C38.3697 35.0584 38.3697 35.2115 38.3697 35.2115ZM38.3697 35.0584C38.2166 35.0584 38.3697 35.0584 38.3697 35.0584C38.2166 35.0584 38.3697 35.0584 38.3697 35.0584ZM38.2166 35.0584C38.0635 34.9053 37.9104 34.9053 37.7573 34.7522C37.9104 34.7522 38.0635 34.9053 38.2166 35.0584ZM42.9625 33.9868C42.9625 33.9868 43.1156 33.9868 42.9625 33.9868C42.9625 33.9868 43.1156 33.9868 42.9625 33.9868ZM26.4283 33.2213C22.7541 33.0682 18.9267 33.0682 14.9463 32.4558C18.7736 33.0682 22.7541 33.0682 26.4283 33.2213ZM53.9852 32.3027C49.6986 32.3027 46.0244 32.6089 43.1156 33.8337C46.0244 32.6089 49.8517 32.3027 53.9852 32.3027ZM53.9852 32.3027C55.21 32.3027 56.4347 32.3027 57.8126 32.3027C59.0373 32.3027 60.4152 32.3027 61.793 32.3027H63.1709H61.9461C60.5683 32.3027 59.3435 32.3027 57.9657 32.3027C56.5878 32.4558 55.3631 32.3027 53.9852 32.3027Z" fill="white"/>
</mask>
<g mask="url(#mask0_303_82)">
<path d="M41.5844 8.41992L65.1609 34.7521L36.5323 60.4719L12.8027 34.2928L41.5844 8.41992Z" fill="url(#paint1_linear_303_82)"/>
</g>
<mask id="mask1_303_82" style="mask-type:luminance" maskUnits="userSpaceOnUse" x="36" y="40" width="7" height="5">
<path d="M36.8389 44.8571L36.992 44.704C36.8389 44.704 36.8389 44.8571 36.8389 44.8571ZM36.8389 44.8571C36.8389 44.704 36.8389 44.704 36.8389 44.5509C36.6858 44.704 36.8389 44.8571 36.8389 44.8571ZM36.992 44.704L37.1451 44.5509C36.992 44.5509 36.992 44.5509 36.992 44.704ZM37.1451 44.3978L37.2982 44.2447C37.1451 44.3978 37.1451 44.3978 37.1451 44.3978ZM36.6858 44.3978C36.6858 44.2447 36.6858 44.2447 36.6858 44.3978C36.6858 44.2447 36.6858 44.2447 36.6858 44.3978ZM37.2982 44.2447L37.4513 44.0916C37.2982 44.0916 37.2982 44.2447 37.2982 44.2447ZM36.5328 43.9385C36.5328 43.7854 36.5328 43.7854 36.5328 43.9385C36.5328 43.7854 36.5328 43.7854 36.5328 43.9385ZM37.6044 43.9385C37.6044 43.7854 37.6044 43.7854 37.6044 43.9385C37.6044 43.7854 37.6044 43.7854 37.6044 43.9385ZM37.7575 43.7854L37.9106 43.6323C37.7575 43.6323 37.7575 43.6323 37.7575 43.7854ZM36.5328 43.4792C36.5328 43.3261 36.5328 43.4792 36.5328 43.4792C36.5328 43.3261 36.5328 43.4792 36.5328 43.4792ZM36.2266 42.7137C36.2266 42.5606 36.2266 42.7137 36.2266 42.7137C36.2266 42.5606 36.2266 42.7137 36.2266 42.7137ZM37.9106 43.4792C38.8292 42.4075 39.9008 41.489 41.1256 40.7235C39.9008 41.489 38.8292 42.4075 37.9106 43.4792ZM41.1256 40.8766C41.1256 40.8766 41.2787 40.8766 41.2787 40.7235C41.2787 40.7235 41.1256 40.7235 41.1256 40.8766ZM41.2787 40.7235C41.2787 40.5704 41.4318 40.5704 41.2787 40.7235C41.2787 40.5704 41.4318 40.5704 41.2787 40.7235ZM41.4318 40.5704C41.5848 40.4173 41.5848 40.5704 41.4318 40.5704C41.5848 40.4173 41.5848 40.5704 41.4318 40.5704ZM41.891 40.2642C41.891 40.2642 42.0441 40.2642 41.891 40.2642C41.891 40.2642 42.0441 40.2642 41.891 40.2642ZM42.0441 40.2642C42.1972 40.1111 42.1972 40.1111 42.0441 40.2642C42.1972 40.1111 42.1972 40.1111 42.0441 40.2642Z" fill="white"/>
</mask>
<g mask="url(#mask1_303_82)">
<path d="M39.5947 36.7432L44.953 42.7138L38.9823 48.0721L33.624 42.2545L39.5947 36.7432Z" fill="url(#paint2_linear_303_82)"/>
</g>
<path d="M81.5422 28.3225C81.236 28.0163 80.7767 28.0163 80.4705 28.1694C77.7148 29.7003 74.4998 30.6189 71.438 31.0781C69.6008 31.3843 67.6106 31.5374 65.7735 31.6905C64.8549 31.6905 63.9364 31.6905 63.1709 31.6905C61.3338 31.6905 59.6497 31.6905 57.9657 31.6905C56.741 31.6905 55.3631 31.6905 54.1384 31.6905C48.627 31.6905 43.1156 31.9967 39.9006 35.3648C37.298 32.7622 32.0928 32.6091 26.2753 32.456C22.9072 32.456 19.0798 32.3029 15.4056 31.6905C14.7932 31.6905 14.3339 31.5374 13.7216 31.3843C10.0473 30.6189 6.67923 29.3941 3.77045 26.9446C3.00498 26.3322 2.3926 25.7199 1.78022 24.9544C1.16785 24.4951 0.708568 24.4951 0.40238 24.6482C0.0961921 24.9544 -0.0569016 25.4137 0.0961924 25.7199C3.77045 32.6091 8.82255 35.5179 13.8746 36.8957C17.3958 37.8143 20.917 37.9674 24.1319 38.1205C31.4804 38.4267 35.3078 39.039 35.9202 44.8566C35.9202 45.1628 36.2264 45.469 36.6856 45.6221H36.8387C37.1449 45.6221 37.4511 45.469 37.6042 45.3159C42.197 38.8859 50.1579 38.1205 58.7312 37.5081C61.0276 37.355 63.324 37.2019 65.6204 36.8957C71.7442 36.1302 77.5617 34.2931 81.8484 29.3941C81.6953 29.0879 81.6953 28.6286 81.5422 28.3225ZM67.4575 34.7524C64.5487 35.3648 61.4869 35.5179 58.425 35.8241C50.6172 36.4364 42.5032 37.0488 37.298 42.7133C35.7671 37.0488 30.1026 36.7426 24.285 36.4364C19.9984 36.1302 15.2525 35.9772 11.119 33.9869C9.12873 33.0684 7.29161 31.8436 5.60757 30.1596C6.52614 30.772 7.59779 31.2312 8.51636 31.5374C14.1808 33.6807 20.6108 33.8338 26.1222 33.8338C32.0928 33.9869 37.298 33.9869 38.9821 36.7426C39.1351 37.0488 39.4413 37.2019 39.7475 37.2019C40.0537 37.2019 40.3599 37.0488 40.513 36.8957C42.8094 33.6807 47.4022 33.0684 54.1384 33.0684C55.3631 33.0684 56.5879 33.0684 57.9657 33.0684C61.64 33.0684 65.6204 33.2215 69.4477 32.7622C71.7442 32.456 74.0406 32.1498 76.337 31.5374C73.4282 33.3746 70.5194 34.2931 67.4575 34.7524Z" fill="#1226AA"/>
<path d="M39.5941 36.5889C35.1544 29.0873 12.1903 38.5792 0.861328 25.4131C11.8841 46.0808 35.1544 30.159 36.6853 45.0091C46.3302 31.5368 69.7536 42.1003 80.7764 28.9342C66.5386 36.742 45.8709 28.0157 39.5941 36.5889Z" fill="white"/>
<path d="M7.59766 125.997H40.9721L52.7604 63.6876C52.7604 63.6876 36.6855 72.2609 20.1514 60.4727L7.59766 125.997Z" fill="#F37821"/>
<mask id="mask2_303_82" style="mask-type:luminance" maskUnits="userSpaceOnUse" x="13" y="60" width="40" height="37">
<path d="M13.2627 96.1428H46.6372L52.7609 63.6869C52.3016 63.9931 46.7903 66.7488 39.1356 66.7488C33.6242 66.7488 26.8881 65.3709 20.1519 60.625L13.2627 96.1428Z" fill="white"/>
</mask>
<g mask="url(#mask2_303_82)">
<path d="M52.7609 60.4727H13.2627V96.1435H52.7609V60.4727Z" fill="url(#paint3_linear_303_82)"/>
</g>
<path d="M121.653 126.149H120.275H96.2391H95.3205L94.8612 125.384L78.174 95.5307L72.6626 124.772L72.3564 125.996H70.9786H49.0861H47.249L47.5552 124.159L58.7311 64.9119L59.0373 63.6871H60.4151H84.6039H85.5225L85.9818 64.4526L102.975 95.8368L108.793 64.9119L109.099 63.6871H110.477H131.91H133.747L133.441 65.5242L122.265 124.772L121.653 126.149ZM168.346 126.149H166.968H142.167H140.177L140.483 124.312L147.985 85.1203H135.431H133.594L133.9 83.2831L137.268 65.2181L137.574 63.9933H138.952H192.841H194.678L194.372 65.8304L191.004 83.8955L190.698 85.1203H189.32H176.154L168.499 124.925L168.346 126.149ZM237.392 126.149H236.014H189.014H187.177L187.483 124.312L198.659 65.065L198.812 63.8402H200.19H247.19H249.027L248.721 65.6773L245.812 80.6805L245.506 81.9053H244.128H223.307L222.542 86.345H241.066H242.903L242.597 88.1821L239.841 102.42L239.535 103.645H238.157H219.173L218.255 108.237H238.463H240.454L240.147 110.075L237.239 125.078L237.392 126.149ZM275.512 90.7847H276.431C282.248 90.7847 284.698 89.56 285.31 86.345C285.769 84.0486 284.851 83.13 283.932 82.6708C282.554 81.9053 280.411 81.9053 278.421 81.9053H277.043L275.512 90.7847ZM312.255 126.149H309.346H281.789H280.717L280.258 125.231L272.297 108.237L269.082 124.925L268.776 126.149H267.398H243.209H241.372L241.678 124.312L252.854 65.065L253.16 63.8402H254.538H285.769C297.098 63.8402 305.365 66.5959 309.805 71.648C313.02 75.3223 313.939 80.0682 312.867 85.8857C311.183 94.6121 306.743 99.0518 296.18 101.961L310.571 123.7L312.255 126.149ZM410.235 102.573H419.88L417.889 86.1919L410.235 102.573ZM452.336 126.149H450.345H424.166H422.788L422.635 124.772L421.87 118.495H403.039L399.977 125.231L399.518 126.149H398.446H372.421H369.665L371.043 123.853L406.867 64.6057L407.326 63.8402H408.245H436.414H437.639L437.945 65.065L452.029 124.312L452.336 126.149ZM489.384 90.9378H491.068C497.345 90.9378 500.407 89.4069 501.019 86.0388C501.326 84.2017 500.713 83.13 499.029 82.5177C497.345 81.9053 495.049 81.9053 492.905 81.9053H491.068L489.384 90.9378ZM482.648 126.149H481.423H457.694H455.857L456.163 124.312L467.339 65.065L467.492 63.8402H468.87H501.632C512.195 63.8402 520.003 66.5959 524.29 71.648C527.658 75.6284 528.729 80.8336 527.658 87.1105C525.208 99.9704 514.185 107.778 499.029 107.778H486.169L482.954 124.772L482.648 126.149ZM574.504 126.149H573.127H526.127H524.29L524.596 124.312L535.772 65.065L535.925 63.8402H537.303H584.303H586.14L585.833 65.6773L582.925 80.6805L582.618 81.9053H581.241H560.42L559.654 86.345H578.179H580.016L579.71 88.1821L576.954 102.42L576.648 103.645H575.27H556.286L555.368 108.237H575.576H577.413L577.107 110.075L574.198 125.078L574.504 126.149ZM347.16 127.068C335.984 127.068 326.492 123.241 320.522 116.351C315.623 110.687 313.786 103.185 315.163 95.3776C318.685 77.1594 338.281 62.7686 360.02 62.7686C365.684 62.7686 371.502 63.534 376.86 65.065L378.238 65.5242L377.932 66.9021L373.951 87.7229L373.492 90.3255L371.349 88.4883C368.593 86.0388 364.919 83.5893 359.254 83.5893C351.6 83.5893 344.557 88.6414 343.333 94.9183C342.873 97.5209 343.486 99.9704 345.17 101.808C347.313 104.41 351.14 105.788 355.121 105.788C360.02 105.788 364 104.563 368.44 101.808L371.502 99.8173L370.89 103.338L367.062 123.241L366.909 124.159L365.991 124.465C361.398 126.303 352.059 127.068 347.16 127.068Z" fill="#F37821"/>
<mask id="mask3_303_82" style="mask-type:luminance" maskUnits="userSpaceOnUse" x="315" y="62" width="64" height="35">
<path d="M315.164 95.3768C315.164 95.683 315.011 95.8361 315.011 96.1423H343.18C343.18 95.8361 343.18 95.5299 343.333 95.2237C344.558 88.9469 351.6 83.8948 359.255 83.8948C364.766 83.8948 368.441 86.3443 371.349 88.7938L373.493 90.4778L373.952 87.8752L377.932 67.0544L378.239 65.6766L376.861 65.2173C371.655 63.6864 365.838 62.9209 360.02 62.9209C338.434 62.9209 318.685 77.1586 315.164 95.3768Z" fill="white"/>
</mask>
<g mask="url(#mask3_303_82)">
<path d="M378.085 62.9209H315.011V96.1423H378.085V62.9209Z" fill="url(#paint4_linear_303_82)"/>
</g>
<mask id="mask4_303_82" style="mask-type:luminance" maskUnits="userSpaceOnUse" x="529" y="63" width="58" height="34">
<path d="M584.456 63.8398H537.303H536.078L535.772 65.0646L529.954 96.1427H578.485L580.016 88.0287L580.322 86.1916H578.485H559.96L560.726 81.9049H581.547H582.925L583.078 80.5271L585.986 65.677L586.293 63.8398H584.456Z" fill="white"/>
</mask>
<g mask="url(#mask4_303_82)">
<path d="M586.293 63.8398H529.954V96.1427H586.293V63.8398Z" fill="url(#paint5_linear_303_82)"/>
</g>
<mask id="mask5_303_82" style="mask-type:luminance" maskUnits="userSpaceOnUse" x="461" y="62" width="65" height="35">
<path d="M491.069 81.9051H492.906C495.049 81.9051 497.345 81.9051 499.029 82.5174C499.642 82.8236 500.254 83.2829 500.407 83.7422C500.56 84.2015 500.714 84.6608 500.56 85.12C500.56 85.2731 500.56 85.4262 500.407 85.5793C499.795 89.1005 496.733 90.4783 490.456 90.4783H488.772L491.069 81.9051ZM468.87 63.84H467.492L467.339 65.0647L461.521 96.1428H524.137C524.137 96.1428 524.137 96.1428 524.29 95.9897C524.29 95.9897 524.29 95.9897 524.29 95.8366C524.29 95.8366 524.29 95.8366 524.29 95.6835V95.5304C524.29 95.5304 524.29 95.5304 524.29 95.3773V95.2242V95.0711V94.9181V94.765V94.6119C524.29 94.6119 524.29 94.6119 524.29 94.4588V94.3057C524.29 94.3057 524.29 94.3057 524.29 94.1526V93.9995V93.8464C524.29 93.8464 524.29 93.8464 524.29 93.6933V93.5402C524.29 93.5402 524.29 93.5402 524.29 93.3871V93.234C524.29 93.234 524.29 93.234 524.29 93.0809V92.9278V92.7747V92.6216C524.29 92.6216 524.29 92.6216 524.29 92.4686C524.29 92.4686 524.29 92.4685 524.29 92.3154C524.29 92.3154 524.29 92.3154 524.29 92.1624C524.29 92.1624 524.29 92.1624 524.29 92.0093V91.8562V91.7031C524.29 91.7031 524.29 91.7031 524.29 91.55C524.29 91.55 524.29 91.55 524.29 91.3969C524.29 91.3969 524.29 91.3969 524.29 91.2438C524.29 91.2438 524.29 91.2438 524.29 91.0907V90.9376V90.7845C524.29 90.7845 524.29 90.7845 524.29 90.6314C524.29 90.6314 524.29 90.6314 524.29 90.4783V90.3252C524.29 90.3252 524.29 90.3252 524.29 90.1721C524.29 90.1721 524.29 90.1721 524.29 90.019V89.8659C524.29 89.7129 524.443 89.5598 524.443 89.4067V89.2536V89.1005V88.9474V88.7943C524.596 88.0288 524.902 87.2634 525.055 86.4979C525.055 86.3448 525.055 86.3448 525.055 86.1917C525.055 86.1917 525.055 86.1917 525.055 86.0386C525.055 86.0386 525.055 86.0386 525.055 85.8855V85.7324C525.362 84.2015 525.515 82.8236 525.515 81.4458C525.515 81.4458 525.515 81.4458 525.515 81.2927C525.515 77.1592 524.29 73.4849 521.84 70.5761C521.84 70.5761 521.84 70.423 521.687 70.423C517.401 65.3709 509.44 62.6152 499.029 62.6152H468.87V63.84Z" fill="white"/>
</mask>
<g mask="url(#mask5_303_82)">
<path d="M528.842 64.4404H462.093V96.7432H528.842V64.4404Z" fill="url(#paint6_linear_303_82)"/>
</g>
<mask id="mask6_303_82" style="mask-type:luminance" maskUnits="userSpaceOnUse" x="387" y="63" width="59" height="34">
<path d="M436.261 63.8398H408.092H407.173L406.714 64.6053L387.73 96.1427H413.297L417.89 86.1916L419.115 96.1427H445.141L437.792 65.0646L437.486 63.8398H436.261Z" fill="white"/>
</mask>
<g mask="url(#mask6_303_82)">
<path d="M445.294 63.8398H387.73V96.1427H445.294V63.8398Z" fill="url(#paint7_linear_303_82)"/>
</g>
<mask id="mask7_303_82" style="mask-type:luminance" maskUnits="userSpaceOnUse" x="247" y="63" width="66" height="34">
<path d="M277.196 81.9049H278.574C280.564 81.9049 282.707 82.058 284.085 82.6704C284.851 83.1297 285.769 83.8951 285.31 86.1916C284.697 89.4065 282.248 90.6313 276.43 90.6313H275.512L277.196 81.9049ZM254.691 63.8398H253.313L253.007 65.0646L247.189 96.1427H307.815C309.499 94.4586 310.723 92.6215 311.642 90.3251C311.642 90.3251 311.642 90.3251 311.642 90.172C311.642 90.172 311.642 90.172 311.642 90.0189C311.642 90.0189 311.642 90.0189 311.642 89.8658C311.642 89.8658 311.642 89.8658 311.642 89.7127C311.642 89.7127 311.642 89.7127 311.642 89.5596C311.642 89.5596 311.642 89.5596 311.642 89.4065C311.642 89.4065 311.642 89.4065 311.642 89.2534C311.642 89.2534 311.642 89.2534 311.642 89.1003C311.642 89.1003 311.642 89.1003 311.642 88.9472C311.642 88.9472 311.642 88.9473 311.642 88.7942C311.642 88.7942 311.642 88.7942 311.642 88.6411C311.642 88.6411 311.642 88.6411 311.642 88.488C311.642 88.488 311.642 88.488 311.642 88.3349C311.642 88.3349 311.642 88.3349 311.642 88.1818C311.642 88.1818 311.642 88.1818 311.642 88.0287C311.642 88.0287 311.642 88.0287 311.642 87.8756C311.642 87.8756 311.642 87.8756 311.642 87.7225C311.642 87.7225 311.642 87.7225 311.642 87.5694C311.642 87.5694 311.642 87.5694 311.642 87.4163C311.642 87.4163 311.642 87.4163 311.642 87.2632C311.642 87.2632 311.642 87.2632 311.642 87.1101C311.642 87.1101 311.642 87.1101 311.642 86.957C311.642 86.957 311.642 86.957 311.642 86.8039C311.642 86.8039 311.642 86.8039 311.642 86.6508C311.642 86.6508 311.642 86.6508 311.642 86.4977C311.642 86.4977 311.642 86.4978 311.642 86.3447C311.642 86.3447 311.642 86.3446 311.642 86.1916C311.642 86.1916 311.642 86.1916 311.642 86.0385V85.8854V85.7323C312.254 82.8235 312.254 80.2209 311.795 77.9245C311.795 77.7714 311.795 77.7714 311.795 77.6183C311.795 77.6183 311.795 77.6183 311.795 77.4652V77.3121C311.795 77.3121 311.795 77.3121 311.795 77.159V77.0059C311.795 77.0059 311.795 77.0059 311.795 76.8528C311.795 76.8528 311.795 76.8528 311.795 76.6997C311.795 76.6997 311.795 76.6997 311.795 76.5466C311.795 76.5466 311.795 76.5466 311.795 76.3935C311.795 76.3935 311.795 76.3935 311.795 76.2405C311.795 76.2405 311.795 76.2405 311.795 76.0874C311.795 76.0874 311.795 75.9343 311.642 75.9343V75.7812C311.642 75.7812 311.642 75.7812 311.642 75.6281V75.475C311.642 75.475 311.642 75.3219 311.489 75.3219C311.489 75.1688 311.489 75.1688 311.336 75.1688C311.336 75.1688 311.336 75.0157 311.183 75.0157V74.8626V74.7095C311.183 74.5564 311.03 74.5564 311.03 74.5564C311.03 74.4033 311.03 74.4033 310.877 74.4033V74.2502C310.877 74.2502 310.877 74.2502 310.877 74.0971C310.877 74.0971 310.877 74.0971 310.877 73.944C310.877 73.944 310.877 73.944 310.877 73.7909C306.59 68.7388 298.17 65.9832 286.994 65.9832H254.691V63.8398Z" fill="white"/>
</mask>
<g mask="url(#mask7_303_82)">
<path d="M313.479 63.8398H247.189V96.1427H313.479V63.8398Z" fill="url(#paint8_linear_303_82)"/>
</g>
<mask id="mask8_303_82" style="mask-type:luminance" maskUnits="userSpaceOnUse" x="192" y="63" width="58" height="34">
<path d="M247.343 63.8398H200.19H198.966L198.659 65.0646L192.842 96.1427H241.373L242.904 88.0287L243.21 86.1916H241.373H222.848L223.614 81.9049H244.434H245.812L245.965 80.5271L248.874 65.677L249.18 63.8398H247.343Z" fill="white"/>
</mask>
<g mask="url(#mask8_303_82)">
<path d="M249.18 63.8398H192.842V96.1427H249.18V63.8398Z" fill="url(#paint9_linear_303_82)"/>
</g>
<mask id="mask9_303_82" style="mask-type:luminance" maskUnits="userSpaceOnUse" x="133" y="63" width="62" height="34">
<path d="M192.841 63.8398H138.952H137.574L137.421 65.0646L133.9 83.1297L133.594 84.9668H135.431H148.291L146.147 96.1427H174.164L176.154 84.9668H189.473H190.698L191.004 83.7421L194.372 65.677L194.678 63.8398H192.841Z" fill="white"/>
</mask>
<g mask="url(#mask9_303_82)">
<path d="M194.678 63.8398H133.594V96.1427H194.678V63.8398Z" fill="url(#paint10_linear_303_82)"/>
</g>
<mask id="mask10_303_82" style="mask-type:luminance" maskUnits="userSpaceOnUse" x="52" y="63" width="82" height="34">
<path d="M131.603 63.8398H110.17H108.945L108.639 65.0646L102.822 96.1427L85.8283 64.6053L85.5221 63.8398H84.4504H60.2616H59.0368L58.7307 65.0646L52.9131 96.1427H78.0205L78.1736 95.5303L78.4798 96.1427H127.317L133.134 65.677L133.44 63.8398H131.603Z" fill="white"/>
</mask>
<g mask="url(#mask10_303_82)">
<path d="M133.594 63.8398H52.9131V96.1427H133.594V63.8398Z" fill="url(#paint11_linear_303_82)"/>
</g>
<path d="M30.5617 145.898L29.3369 149.419C28.4184 148.96 27.4998 148.654 26.5812 148.501C25.6627 148.348 24.7441 148.194 23.6725 148.194C22.2946 148.194 21.223 148.501 20.3044 148.96C19.5389 149.419 19.0796 150.032 19.0796 150.95C19.0796 151.409 19.2327 152.022 19.692 152.481C19.9982 152.94 20.6106 153.4 21.3761 153.859L21.9884 154.165C24.4379 155.543 25.9689 156.615 26.5812 157.227C27.0405 157.839 27.4998 158.452 27.806 159.064C28.1122 159.677 28.2653 160.442 28.2653 161.054C28.2653 163.351 27.1936 165.188 25.3565 166.566C23.3663 167.944 20.6106 168.709 17.2425 168.709C16.0178 168.709 14.793 168.556 13.5683 168.403C12.3435 168.25 11.2719 167.944 10.2002 167.484L11.4249 163.81C12.3435 164.269 13.4152 164.729 14.4868 164.882C15.5585 165.188 16.6301 165.341 17.7018 165.341C19.2327 165.341 20.6106 165.035 21.5291 164.422C22.4477 163.81 22.907 163.045 22.907 162.126C22.907 160.901 21.5291 159.523 18.9265 157.992C18.3142 157.686 17.8549 157.38 17.5487 157.227C16.477 156.615 15.5585 155.696 14.9461 154.778C14.3337 153.859 14.0275 152.787 14.0275 151.869C14.0275 149.725 14.9461 148.041 16.7832 146.817C18.6204 145.592 21.0699 144.979 24.2848 144.979C25.5096 144.979 26.5812 145.133 27.6529 145.286C28.4184 145.286 29.49 145.439 30.5617 145.898Z" fill="#F27B21"/>
<path d="M48.7802 158.911L47.5554 163.963C47.4023 164.882 47.0961 165.8 47.0961 166.413C46.943 167.025 46.7899 167.791 46.7899 168.25H42.8095L43.2688 165.647C42.5033 166.566 41.5847 167.331 40.5131 167.791C39.4414 168.25 38.3698 168.556 36.9919 168.556C35.1548 168.556 33.7769 168.097 32.5522 167.178C31.4805 166.26 30.8682 165.035 30.8682 163.657C30.8682 161.667 31.7867 160.289 33.6239 159.217C35.461 158.146 38.0636 157.533 41.2785 157.533C41.5847 157.533 42.044 157.533 42.5033 157.533C42.9626 157.533 43.728 157.533 44.4935 157.686C44.4935 157.533 44.4935 157.38 44.4935 157.227C44.4935 157.074 44.4935 157.074 44.4935 156.921C44.4935 155.849 44.1873 155.084 43.4219 154.624C42.8095 154.012 41.7378 153.859 40.5131 153.859C39.5945 153.859 38.676 154.012 37.7574 154.165C36.8388 154.318 35.7672 154.624 34.8486 155.084L35.461 151.869C36.3795 151.563 37.4512 151.256 38.5229 151.103C39.4414 150.95 40.5131 150.95 41.5847 150.95C44.0342 150.95 45.8714 151.409 47.0961 152.328C48.3209 153.247 49.0863 154.624 49.0863 156.462C49.0863 156.768 49.0863 157.074 49.0863 157.533C48.9332 157.993 48.9332 158.452 48.7802 158.911ZM44.0342 160.136H43.8811C43.1157 160.136 42.5033 159.983 42.1971 159.983C40.0538 159.983 38.3698 160.289 37.2981 160.748C36.2265 161.361 35.6141 162.126 35.6141 163.351C35.6141 164.116 35.9203 164.576 36.3795 165.035C36.8388 165.494 37.6043 165.647 38.5229 165.647C39.9007 165.647 41.1255 165.188 42.1971 164.116C43.1157 163.198 43.7281 161.973 44.0342 160.136Z" fill="#F27B21"/>
<path d="M68.6821 143.602L67.7635 146.664C67.4573 146.51 66.998 146.51 66.6918 146.357C66.3856 146.357 66.0795 146.204 65.7733 146.204C65.0078 146.204 64.3954 146.51 63.7831 146.97C63.1707 147.429 62.8645 148.194 62.5583 148.96L61.9459 151.256H66.6918L65.9264 154.471H61.1805L57.9655 168.25H53.0665L56.2814 154.471H52.4541L53.2196 151.256H57.0469L57.8124 148.348C58.2717 146.664 59.0371 145.286 60.415 144.367C61.6397 143.449 63.3238 142.989 65.314 142.989C65.9264 142.989 66.3856 142.989 66.998 143.142C67.6104 143.295 68.2228 143.449 68.6821 143.602Z" fill="#F27B21"/>
<path d="M84.4511 160.901H71.1319V161.054C71.1319 161.207 71.1319 161.207 71.1319 161.513C71.1319 162.738 71.5912 163.81 72.5097 164.422C73.4283 165.187 74.653 165.494 76.3371 165.494C77.2556 165.494 78.1742 165.341 79.0928 165.187C80.0113 165.034 80.7768 164.728 81.6954 164.422L81.3892 167.79C80.3175 168.096 79.399 168.402 78.3273 168.556C77.2556 168.709 76.3371 168.709 75.2654 168.709C72.5097 168.709 70.3664 167.943 68.8355 166.565C67.3045 165.187 66.5391 163.197 66.5391 160.901C66.5391 159.523 66.8453 158.298 67.3045 157.073C67.9169 155.849 68.5293 154.777 69.6009 153.705C70.6726 152.634 71.7443 152.021 72.969 151.409C74.1938 150.95 75.5716 150.644 77.2556 150.644C79.552 150.644 81.3892 151.256 82.6139 152.481C83.9918 153.705 84.6041 155.389 84.6041 157.533C84.6041 157.992 84.6041 158.451 84.4511 159.064C84.7572 159.829 84.6041 160.288 84.4511 160.901ZM80.6237 158.298C80.6237 157.839 80.6237 157.533 80.6237 157.38C80.6237 156.308 80.3175 155.389 79.7051 154.777C79.0928 154.165 78.1742 153.859 77.1025 153.859C75.8778 153.859 74.653 154.318 73.7345 155.083C72.8159 155.849 72.0504 156.92 71.7443 158.451H80.6237V158.298Z" fill="#F27B21"/>
<path d="M102.976 156.003C102.976 154.625 103.435 153.553 104.507 152.635C105.578 151.716 106.803 151.257 108.181 151.257C109.712 151.257 110.936 151.716 111.855 152.635C112.927 153.553 113.386 154.778 113.386 156.003C113.386 157.381 112.927 158.452 111.855 159.371C110.783 160.289 109.559 160.749 108.181 160.749C106.65 160.749 105.425 160.289 104.507 159.371C103.435 158.452 102.976 157.228 102.976 156.003Z" fill="#F27B21"/>
<path d="M135.278 145.286H142.321C146.454 145.286 149.516 146.205 151.659 147.889C153.803 149.573 154.874 152.022 154.874 155.39C154.874 157.687 154.262 159.83 153.19 161.82C152.119 163.81 150.588 165.341 148.75 166.26C147.373 167.025 145.995 167.485 144.311 167.944C142.78 168.25 140.79 168.403 138.646 168.403H129.92L135.278 145.286ZM139.565 148.654L135.891 164.729H138.799C140.33 164.729 141.708 164.576 142.933 164.27C144.005 163.964 145.076 163.504 145.842 162.892C146.913 161.973 147.832 160.902 148.597 159.524C149.363 157.993 149.669 156.615 149.669 155.084C149.669 152.941 149.057 151.41 147.832 150.338C146.607 149.267 144.77 148.654 142.474 148.654H139.565Z" fill="#F27B21"/>
<path d="M174.93 160.901H161.61V161.054C161.61 161.207 161.61 161.207 161.61 161.513C161.61 162.738 162.07 163.81 162.988 164.422C163.907 165.187 165.132 165.494 166.816 165.494C167.734 165.494 168.653 165.341 169.571 165.187C170.49 165.034 171.255 164.728 172.174 164.422L171.868 167.79C170.796 168.096 169.877 168.402 168.806 168.556C167.734 168.709 166.816 168.709 165.744 168.709C162.988 168.709 160.845 167.943 159.314 166.565C157.783 165.187 157.018 163.197 157.018 160.901C157.018 159.523 157.324 158.298 157.783 157.073C158.242 155.849 159.008 154.777 160.079 153.705C161.151 152.634 162.223 152.021 163.448 151.409C164.672 150.95 166.05 150.644 167.734 150.644C170.031 150.644 171.868 151.256 173.092 152.481C174.47 153.705 175.083 155.389 175.083 157.533C175.083 157.992 175.083 158.451 174.93 159.064C175.236 159.829 175.083 160.288 174.93 160.901ZM171.102 158.298C171.102 157.839 171.102 157.533 171.102 157.38C171.102 156.308 170.796 155.389 170.184 154.777C169.571 154.165 168.653 153.859 167.581 153.859C166.356 153.859 165.132 154.318 164.213 155.083C163.294 155.849 162.529 156.92 162.223 158.451H171.102V158.298Z" fill="#F27B21"/>
<path d="M182.891 165.341L180.594 175.292H175.695L181.36 151.257H185.646L185.034 154.318C185.953 153.247 186.871 152.481 188.096 151.869C189.168 151.257 190.392 151.104 191.77 151.104C193.913 151.104 195.598 151.716 196.822 153.094C198.047 154.318 198.659 156.156 198.659 158.452C198.659 161.514 197.741 163.963 196.057 165.954C194.22 167.944 192.076 168.862 189.321 168.862C187.79 168.862 186.565 168.556 185.493 167.944C184.269 167.331 183.503 166.413 182.891 165.341ZM193.607 158.452C193.607 157.227 193.301 156.156 192.536 155.543C191.923 154.931 191.005 154.472 189.78 154.472C188.249 154.472 186.871 155.237 185.799 156.462C184.575 157.84 184.115 159.371 184.115 161.208C184.115 162.432 184.422 163.504 185.187 164.27C185.953 165.035 186.871 165.494 188.096 165.494C189.627 165.494 190.852 164.882 192.076 163.504C192.995 161.973 193.607 160.289 193.607 158.452Z" fill="#F27B21"/>
<path d="M219.021 160.901H205.855V161.054C205.855 161.207 205.855 161.207 205.855 161.513C205.855 162.738 206.314 163.81 207.232 164.422C208.151 165.187 209.376 165.494 211.06 165.494C211.978 165.494 212.897 165.341 213.815 165.187C214.734 165.034 215.499 164.728 216.418 164.422L216.112 167.79C215.04 168.096 214.122 168.402 213.05 168.556C211.978 168.709 211.06 168.709 209.988 168.709C207.232 168.709 205.089 167.943 203.558 166.565C202.027 165.187 201.262 163.197 201.262 160.901C201.262 159.523 201.568 158.298 202.027 157.073C202.64 155.849 203.252 154.777 204.324 153.705C205.395 152.634 206.467 152.021 207.692 151.409C208.916 150.95 210.294 150.644 211.978 150.644C214.275 150.644 216.112 151.256 217.337 152.481C218.714 153.705 219.327 155.389 219.327 157.533C219.327 157.992 219.327 158.451 219.174 159.064C219.174 159.829 219.174 160.288 219.021 160.901ZM215.193 158.298C215.193 157.839 215.193 157.533 215.193 157.38C215.193 156.308 214.887 155.389 214.275 154.777C213.662 154.165 212.744 153.859 211.672 153.859C210.447 153.859 209.376 154.318 208.304 155.083C207.385 155.849 206.62 156.92 206.314 158.451H215.193V158.298Z" fill="#F27B21"/>
<path d="M240.913 160.596L239.076 168.403H234.177L236.32 159.524C236.32 159.218 236.473 158.912 236.473 158.452C236.473 158.146 236.473 157.84 236.473 157.534C236.473 156.615 236.167 156.003 235.708 155.39C235.249 154.931 234.483 154.625 233.565 154.625C232.187 154.625 230.962 155.084 230.044 156.156C229.125 157.228 228.359 158.605 227.9 160.596L226.063 168.403H221.164L225.145 151.41H229.584L228.819 154.472C229.737 153.4 230.809 152.635 231.881 152.022C233.105 151.41 234.33 151.257 235.555 151.257C237.392 151.257 238.77 151.716 239.842 152.788C240.913 153.859 241.372 155.237 241.372 156.921C241.372 157.534 241.372 158.146 241.219 158.758C241.219 159.218 241.066 159.83 240.913 160.596Z" fill="#F27B21"/>
<path d="M262.958 143.449H267.704L262.04 168.404H257.753L258.366 165.648C257.447 166.719 256.528 167.638 255.304 168.097C254.232 168.71 253.007 168.863 251.629 168.863C249.486 168.863 247.802 168.25 246.577 166.873C245.353 165.648 244.74 163.811 244.74 161.514C244.74 158.452 245.659 156.003 247.343 154.013C249.18 152.022 251.323 151.104 254.079 151.104C255.61 151.104 256.835 151.41 257.753 152.022C258.825 152.635 259.59 153.4 260.203 154.625L262.958 143.449ZM259.284 158.606C259.284 157.381 258.978 156.309 258.213 155.544C257.447 154.778 256.528 154.472 255.304 154.472C253.773 154.472 252.395 155.084 251.323 156.462C250.252 157.84 249.792 159.524 249.792 161.514C249.792 162.586 250.099 163.505 250.864 164.27C251.476 165.035 252.395 165.342 253.467 165.342C254.998 165.342 256.375 164.576 257.6 163.351C258.672 162.127 259.284 160.443 259.284 158.606Z" fill="#F27B21"/>
<path d="M285.004 158.911L283.932 163.963C283.779 164.882 283.473 165.8 283.473 166.413C283.32 167.025 283.167 167.791 283.167 168.25H279.186L279.646 165.647C278.88 166.566 277.962 167.331 276.89 167.791C275.818 168.25 274.594 168.556 273.369 168.556C271.532 168.556 270.154 168.097 268.929 167.178C267.857 166.26 267.245 165.035 267.245 163.657C267.245 161.667 268.164 160.289 270.001 159.217C271.838 158.146 274.441 157.533 277.655 157.533C277.962 157.533 278.421 157.533 278.88 157.533C279.34 157.533 279.952 157.533 280.87 157.686C280.87 157.533 280.87 157.38 280.87 157.227C280.87 157.074 280.87 157.074 280.87 156.921C280.87 155.849 280.564 155.084 279.799 154.624C279.186 154.012 278.115 153.859 276.89 153.859C275.971 153.859 275.053 154.012 274.134 154.165C273.216 154.318 272.297 154.624 271.226 155.084L271.838 151.869C272.756 151.563 273.828 151.256 274.9 151.103C275.818 150.95 276.89 150.95 277.962 150.95C280.411 150.95 282.248 151.409 283.473 152.328C284.698 153.247 285.463 154.624 285.463 156.462C285.463 156.768 285.463 157.074 285.31 157.533C285.157 157.993 285.157 158.452 285.004 158.911ZM280.105 160.136H279.952C279.186 160.136 278.574 159.983 278.268 159.983C276.125 159.983 274.441 160.289 273.369 160.748C272.297 161.361 271.838 162.126 271.838 163.351C271.838 164.116 272.144 164.576 272.603 165.035C273.063 165.494 273.828 165.647 274.747 165.647C276.125 165.647 277.349 165.188 278.421 164.116C279.34 163.198 279.952 161.973 280.105 160.136Z" fill="#F27B21"/>
<path d="M293.577 143.449H298.323L295.874 153.707C296.792 152.788 297.711 152.176 298.629 151.716C299.701 151.257 300.773 151.104 301.844 151.104C303.988 151.104 305.672 151.716 306.897 153.094C308.121 154.319 308.734 156.156 308.734 158.452C308.734 159.983 308.427 161.514 307.815 163.045C307.203 164.423 306.437 165.648 305.366 166.566C304.447 167.332 303.528 167.944 302.61 168.25C301.538 168.71 300.467 168.863 299.242 168.863C297.711 168.863 296.486 168.557 295.414 167.791C294.343 167.179 293.577 166.26 293.118 165.035L292.199 168.404H287.76L293.577 143.449ZM303.988 158.452C303.988 157.228 303.682 156.156 303.069 155.544C302.457 154.931 301.538 154.472 300.313 154.472C298.783 154.472 297.405 155.237 296.333 156.462C295.261 157.84 294.649 159.371 294.649 161.208C294.649 162.433 294.955 163.505 295.721 164.27C296.486 165.035 297.405 165.495 298.629 165.495C300.16 165.495 301.385 164.882 302.457 163.505C303.375 161.974 303.988 160.29 303.988 158.452Z" fill="#F27B21"/>
<path d="M317 143.449H321.899L316.082 168.25H311.183L317 143.449Z" fill="#F27B21"/>
<path d="M339.965 160.901H326.799V161.054C326.799 161.207 326.799 161.207 326.799 161.513C326.799 162.738 327.258 163.81 328.177 164.422C329.095 165.187 330.32 165.494 332.004 165.494C332.923 165.494 333.841 165.341 334.76 165.187C335.678 165.034 336.444 164.728 337.362 164.422L337.056 167.79C335.985 168.096 335.066 168.402 333.994 168.556C332.923 168.709 332.004 168.709 330.932 168.709C328.177 168.709 326.033 167.943 324.502 166.565C322.972 165.187 322.206 163.197 322.206 160.901C322.206 159.523 322.512 158.298 322.972 157.073C323.431 155.849 324.196 154.777 325.268 153.705C326.34 152.634 327.411 152.021 328.636 151.409C329.861 150.95 331.239 150.644 332.923 150.644C335.219 150.644 337.056 151.256 338.281 152.481C339.659 153.705 340.271 155.389 340.271 157.533C340.271 157.992 340.271 158.451 340.118 159.064C340.271 159.829 340.118 160.288 339.965 160.901ZM336.138 158.298C336.138 157.839 336.138 157.533 336.138 157.38C336.138 156.308 335.831 155.389 335.219 154.777C334.607 154.165 333.688 153.859 332.616 153.859C331.392 153.859 330.167 154.318 329.248 155.083C328.33 155.849 327.564 156.92 327.258 158.451H336.138V158.298Z" fill="#F27B21"/>
<path d="M358.489 156.003C358.489 154.625 358.949 153.553 360.02 152.635C361.092 151.716 362.317 151.257 363.694 151.257C365.072 151.257 366.45 151.716 367.369 152.635C368.44 153.553 368.9 154.778 368.9 156.003C368.9 157.381 368.44 158.452 367.369 159.371C366.297 160.289 365.072 160.749 363.694 160.749C362.164 160.749 360.939 160.289 360.02 159.371C358.949 158.452 358.489 157.228 358.489 156.003Z" fill="#F27B21"/>
<path d="M398.446 145.286H404.57L409.01 168.403H404.111L403.192 162.892H392.17L388.648 168.403H383.29L398.446 145.286ZM400.896 148.654L394.007 159.371H402.58L400.896 148.654Z" fill="#F27B21"/>
<path d="M428.606 143.602L427.688 146.664C427.381 146.51 426.922 146.51 426.616 146.357C426.31 146.357 426.004 146.204 425.697 146.204C424.932 146.204 424.319 146.51 423.707 146.97C423.095 147.429 422.789 148.194 422.482 148.96L421.87 151.256H426.616L425.85 154.471H421.105L417.89 168.25H412.991L416.205 154.471H412.531L413.297 151.256H417.124L417.89 148.348C418.349 146.664 419.114 145.286 420.492 144.367C421.717 143.449 423.401 142.989 425.391 142.989C426.004 142.989 426.616 142.989 427.075 143.142C427.534 143.295 427.994 143.449 428.606 143.602Z" fill="#F27B21"/>
<path d="M442.997 143.602L442.078 146.664C441.772 146.51 441.313 146.51 441.006 146.357C440.7 146.357 440.394 146.204 440.088 146.204C439.322 146.204 438.71 146.51 438.098 146.97C437.485 147.429 437.179 148.194 436.873 148.96L436.26 151.256H441.006L440.241 154.471H435.495L432.28 168.25H427.381L430.596 154.471H426.769L427.534 151.256H431.361L431.974 148.348C432.433 146.664 433.199 145.286 434.576 144.367C435.801 143.449 437.485 142.989 439.475 142.989C440.088 142.989 440.7 142.989 441.159 143.142C441.925 143.295 442.537 143.449 442.997 143.602Z" fill="#F27B21"/>
<path d="M452.336 150.95C454.938 150.95 457.082 151.716 458.613 153.094C460.144 154.471 460.909 156.462 460.909 158.758C460.909 160.136 460.603 161.361 460.144 162.738C459.531 163.963 458.766 165.035 457.694 165.953C456.622 166.872 455.551 167.637 454.173 168.097C452.795 168.556 451.417 168.862 449.733 168.862C446.977 168.862 444.834 168.25 443.303 166.872C441.772 165.494 441.007 163.657 441.007 161.207C441.007 158.146 442.078 155.696 444.069 153.859C446.212 151.869 448.968 150.95 452.336 150.95ZM456.01 158.452C456.01 157.074 455.704 156.002 454.938 155.237C454.173 154.471 453.101 154.012 451.877 154.012C450.346 154.012 448.968 154.778 447.743 156.002C446.518 157.38 445.906 158.911 445.906 160.901C445.906 162.279 446.365 163.504 447.131 164.269C447.896 165.188 448.968 165.494 450.192 165.494C451.877 165.494 453.101 164.882 454.326 163.504C455.551 162.126 456.01 160.442 456.01 158.452Z" fill="#F27B21"/>
<path d="M478.821 151.256L477.749 155.083C477.29 154.93 476.984 154.93 476.524 154.777C476.218 154.777 475.759 154.624 475.453 154.624C473.922 154.624 472.85 155.083 471.931 155.849C471.013 156.767 470.4 158.145 469.941 160.288L468.104 168.096H463.205L467.032 151.103H471.472L470.86 154.012C471.778 152.787 472.697 152.021 473.615 151.409C474.534 150.95 475.606 150.644 476.677 150.644C476.984 150.644 477.29 150.644 477.749 150.797C478.055 151.103 478.361 151.103 478.821 151.256Z" fill="#F27B21"/>
<path d="M496.733 143.449H501.479L495.814 168.404H491.528L492.14 165.648C491.221 166.719 490.303 167.638 489.078 168.097C488.006 168.71 486.782 168.863 485.404 168.863C483.261 168.863 481.576 168.25 480.352 166.873C479.127 165.648 478.515 163.811 478.515 161.514C478.515 158.452 479.433 156.003 481.117 154.013C482.954 152.022 485.098 151.104 487.853 151.104C489.384 151.104 490.609 151.41 491.528 152.022C492.599 152.635 493.365 153.4 493.977 154.625L496.733 143.449ZM493.059 158.606C493.059 157.381 492.752 156.309 491.987 155.544C491.221 154.778 490.303 154.472 489.078 154.472C487.547 154.472 486.169 155.084 485.098 156.462C484.026 157.84 483.567 159.524 483.567 161.514C483.567 162.586 483.873 163.505 484.638 164.27C485.251 165.035 486.169 165.342 487.241 165.342C488.772 165.342 490.15 164.576 491.375 163.351C492.446 162.127 493.059 160.443 493.059 158.606Z" fill="#F27B21"/>
<path d="M518.778 158.911L517.707 163.963C517.554 164.882 517.247 165.8 517.247 166.413C517.094 167.025 516.941 167.791 516.941 168.25H512.961L513.42 165.647C512.655 166.566 511.736 167.331 510.664 167.791C509.593 168.25 508.521 168.556 507.143 168.556C505.306 168.556 503.928 168.097 502.704 167.178C501.632 166.26 501.02 165.035 501.02 163.657C501.02 161.667 501.938 160.289 503.775 159.217C505.612 158.146 508.215 157.533 511.583 157.533C511.889 157.533 512.349 157.533 512.808 157.533C513.267 157.533 513.879 157.533 514.798 157.686C514.798 157.533 514.798 157.38 514.798 157.227C514.798 157.074 514.798 157.074 514.798 156.921C514.798 155.849 514.492 155.084 513.726 154.624C513.114 154.012 512.042 153.859 510.818 153.859C509.899 153.859 508.98 154.012 508.062 154.165C507.143 154.318 506.072 154.624 505.153 155.084L505.765 151.869C506.837 151.563 507.756 151.256 508.827 151.103C509.899 150.95 510.818 150.95 511.889 150.95C514.339 150.95 516.176 151.409 517.401 152.328C518.625 153.247 519.391 154.624 519.391 156.462C519.391 156.768 519.391 157.074 519.238 157.533C518.932 157.993 518.932 158.452 518.778 158.911ZM514.033 160.136H513.879C513.114 160.136 512.502 159.983 512.195 159.983C510.052 159.983 508.368 160.289 507.296 160.748C506.225 161.361 505.765 162.126 505.765 163.351C505.765 164.116 506.072 164.576 506.531 165.035C506.99 165.494 507.756 165.647 508.674 165.647C510.052 165.647 511.277 165.188 512.349 164.116C513.114 163.198 513.726 161.973 514.033 160.136Z" fill="#F27B21"/>
<path d="M527.504 143.449H532.25L529.801 153.707C530.719 152.788 531.638 152.176 532.556 151.716C533.475 151.257 534.7 151.104 535.771 151.104C537.915 151.104 539.599 151.716 540.823 153.094C542.048 154.319 542.661 156.156 542.661 158.452C542.661 159.983 542.354 161.514 541.742 163.045C541.13 164.423 540.364 165.648 539.293 166.566C538.374 167.332 537.455 167.944 536.537 168.25C535.465 168.71 534.394 168.863 533.169 168.863C531.638 168.863 530.413 168.557 529.341 167.791C528.27 167.179 527.504 166.26 527.045 165.035L526.28 168.404H521.84L527.504 143.449ZM537.762 158.452C537.762 157.228 537.455 156.156 536.843 155.544C536.231 154.931 535.312 154.472 534.087 154.472C532.556 154.472 531.179 155.237 530.107 156.462C528.882 157.84 528.423 159.371 528.423 161.208C528.423 162.433 528.729 163.505 529.495 164.27C530.26 165.035 531.179 165.495 532.403 165.495C533.934 165.495 535.159 164.882 536.231 163.505C537.149 161.974 537.762 160.29 537.762 158.452Z" fill="#F27B21"/>
<path d="M550.775 143.449H555.674L549.856 168.25H545.11L550.775 143.449Z" fill="#F27B21"/>
<path d="M573.739 160.901H560.42V161.054C560.42 161.207 560.42 161.207 560.42 161.513C560.42 162.738 560.879 163.81 561.798 164.422C562.716 165.187 563.941 165.494 565.625 165.494C566.544 165.494 567.462 165.341 568.381 165.187C569.299 165.034 570.065 164.728 570.983 164.422L570.677 167.79C569.606 168.096 568.687 168.402 567.615 168.556C566.544 168.709 565.625 168.709 564.553 168.709C561.798 168.709 559.654 167.943 558.124 166.565C556.593 165.187 555.827 163.197 555.827 160.901C555.827 159.523 556.133 158.298 556.593 157.073C557.205 155.849 557.817 154.777 558.889 153.705C559.961 152.634 561.032 152.021 562.257 151.409C563.482 150.95 564.86 150.644 566.544 150.644C568.84 150.644 570.677 151.256 571.902 152.481C573.28 153.705 573.892 155.389 573.892 157.533C573.892 157.992 573.892 158.451 573.739 159.064C574.045 159.829 573.892 160.288 573.739 160.901ZM569.912 158.298C569.912 157.839 569.912 157.533 569.912 157.38C569.912 156.308 569.606 155.389 568.993 154.777C568.381 154.165 567.462 153.859 566.391 153.859C565.166 153.859 563.941 154.318 563.023 155.083C562.104 155.849 561.339 156.92 561.032 158.451H569.912V158.298Z" fill="#F27B21"/>
<path d="M392.628 15.8099C392.475 14.5145 391.853 13.5088 390.762 12.7929C389.671 12.077 388.333 11.719 386.748 11.719C385.589 11.719 384.574 11.9065 383.705 12.2815C382.844 12.6565 382.171 13.1721 381.685 13.8284C381.208 14.4846 380.969 15.2304 380.969 16.0656C380.969 16.7645 381.135 17.3653 381.468 17.8682C381.809 18.3625 382.243 18.7758 382.772 19.1082C383.3 19.4321 383.854 19.7005 384.434 19.9136C385.013 20.1182 385.546 20.2844 386.032 20.4122L388.691 21.1281C389.373 21.3071 390.131 21.5542 390.966 21.8696C391.81 22.1849 392.616 22.6153 393.383 23.1608C394.158 23.6977 394.797 24.388 395.3 25.2318C395.803 26.0756 396.054 27.1111 396.054 28.3383C396.054 29.7531 395.684 31.0315 394.942 32.1736C394.209 33.3156 393.135 34.2233 391.721 34.8966C390.314 35.5699 388.606 35.9065 386.594 35.9065C384.719 35.9065 383.096 35.604 381.723 34.9988C380.36 34.3937 379.286 33.55 378.502 32.4676C377.726 31.3852 377.287 30.1281 377.185 28.6963H380.458C380.543 29.6849 380.875 30.5031 381.455 31.1508C382.043 31.79 382.785 32.2673 383.679 32.5827C384.583 32.8895 385.554 33.0429 386.594 33.0429C387.804 33.0429 388.891 32.8469 389.854 32.4548C390.817 32.0542 391.58 31.5003 392.142 30.7929C392.705 30.077 392.986 29.2417 392.986 28.2872C392.986 27.4179 392.743 26.7105 392.258 26.165C391.772 25.6196 391.133 25.1764 390.34 24.8355C389.547 24.4946 388.691 24.1963 387.77 23.9406L384.549 23.0202C382.503 22.4321 380.884 21.5926 379.691 20.5017C378.498 19.4108 377.901 17.9832 377.901 16.219C377.901 14.7531 378.297 13.4747 379.09 12.3838C379.891 11.2844 380.965 10.4321 382.312 9.82697C383.667 9.21333 385.179 8.90652 386.85 8.90652C388.537 8.90652 390.037 9.20907 391.35 9.81419C392.662 10.4108 393.702 11.229 394.469 12.2687C395.245 13.3085 395.654 14.4889 395.696 15.8099H392.628ZM401.267 35.4463V9.26447H404.438V32.6338H416.608V35.4463H401.267ZM421.517 35.4463V9.26447H437.318V12.077H424.688V20.9236H436.5V23.7361H424.688V32.6338H437.523V35.4463H421.517ZM443.033 35.4463V9.26447H458.834V12.077H446.203V20.9236H458.016V23.7361H446.203V32.6338H459.038V35.4463H443.033ZM464.548 35.4463V9.26447H473.395C475.449 9.26447 477.128 9.63521 478.432 10.3767C479.744 11.1096 480.716 12.1025 481.347 13.3554C481.977 14.6082 482.293 16.0059 482.293 17.5486C482.293 19.0912 481.977 20.4932 481.347 21.7545C480.725 23.0159 479.761 24.0216 478.457 24.7716C477.153 25.5131 475.483 25.8838 473.446 25.8838H467.105V23.0713H473.344C474.75 23.0713 475.879 22.8284 476.732 22.3426C477.584 21.8568 478.202 21.2005 478.585 20.3738C478.977 19.5386 479.173 18.5969 479.173 17.5486C479.173 16.5003 478.977 15.5628 478.585 14.7361C478.202 13.9094 477.58 13.2616 476.719 12.7929C475.858 12.3156 474.716 12.077 473.293 12.077H467.719V35.4463H464.548ZM487.4 35.4463V9.26447H490.57V32.6338H502.741V35.4463H487.4ZM510.82 9.26447V35.4463H507.65V9.26447H510.82ZM537.939 9.26447V35.4463H534.87L520.603 14.8895H520.348V35.4463H517.177V9.26447H520.245L534.564 29.8724H534.819V9.26447H537.939ZM544.283 35.4463V9.26447H560.084V12.077H547.453V20.9236H559.266V23.7361H547.453V32.6338H560.288V35.4463H544.283ZM565.798 35.4463V9.26447H574.645C576.69 9.26447 578.369 9.6139 579.682 10.3128C580.994 11.0031 581.966 11.9534 582.597 13.1636C583.227 14.3738 583.543 15.7503 583.543 17.2929C583.543 18.8355 583.227 20.2034 582.597 21.3966C581.966 22.5898 580.999 23.5273 579.695 24.2091C578.391 24.8824 576.725 25.219 574.696 25.219H567.537V22.3554H574.594C575.992 22.3554 577.117 22.1508 577.969 21.7417C578.83 21.3327 579.452 20.7531 579.835 20.0031C580.227 19.2446 580.423 18.3412 580.423 17.2929C580.423 16.2446 580.227 15.3284 579.835 14.5443C579.443 13.7602 578.817 13.1551 577.956 12.729C577.095 12.2943 575.957 12.077 574.543 12.077H568.969V35.4463H565.798ZM578.122 23.6849L584.565 35.4463H580.884L574.543 23.6849H578.122Z" fill="black"/>
<defs>
<linearGradient id="paint0_linear_303_82" x1="26.0846" y1="25.4485" x2="61.7448" y2="54.625" gradientUnits="userSpaceOnUse">
<stop stop-color="#F5893D"/>
<stop offset="1" stop-color="#FABD91"/>
</linearGradient>
<linearGradient id="paint1_linear_303_82" x1="16.7258" y1="9.71727" x2="62.8712" y2="60.9669" gradientUnits="userSpaceOnUse">
<stop stop-color="#F8A871"/>
<stop offset="1" stop-color="white"/>
</linearGradient>
<linearGradient id="paint2_linear_303_82" x1="12.7032" y1="12.9587" x2="58.8998" y2="64.2649" gradientUnits="userSpaceOnUse">
<stop stop-color="#F8A871"/>
<stop offset="1" stop-color="white"/>
</linearGradient>
<linearGradient id="paint3_linear_303_82" x1="32.9731" y1="96.1171" x2="32.9731" y2="58.741" gradientUnits="userSpaceOnUse">
<stop stop-color="#FBB784"/>
<stop offset="1" stop-color="#F37821"/>
</linearGradient>
<linearGradient id="paint4_linear_303_82" x1="346.618" y1="96.1344" x2="346.618" y2="58.7706" gradientUnits="userSpaceOnUse">
<stop stop-color="#FBB784"/>
<stop offset="1" stop-color="#F37821"/>
</linearGradient>
<linearGradient id="paint5_linear_303_82" x1="558.1" y1="96.1355" x2="558.1" y2="58.7446" gradientUnits="userSpaceOnUse">
<stop stop-color="#FBB784"/>
<stop offset="1" stop-color="#F37821"/>
</linearGradient>
<linearGradient id="paint6_linear_303_82" x1="495.47" y1="96.7361" x2="495.47" y2="59.3452" gradientUnits="userSpaceOnUse">
<stop stop-color="#FBB784"/>
<stop offset="1" stop-color="#F37821"/>
</linearGradient>
<linearGradient id="paint7_linear_303_82" x1="416.412" y1="96.1355" x2="416.412" y2="58.7446" gradientUnits="userSpaceOnUse">
<stop stop-color="#FBB784"/>
<stop offset="1" stop-color="#F37821"/>
</linearGradient>
<linearGradient id="paint8_linear_303_82" x1="280.304" y1="96.1355" x2="280.304" y2="58.7446" gradientUnits="userSpaceOnUse">
<stop stop-color="#FBB784"/>
<stop offset="1" stop-color="#F37821"/>
</linearGradient>
<linearGradient id="paint9_linear_303_82" x1="220.971" y1="96.1355" x2="220.971" y2="58.7446" gradientUnits="userSpaceOnUse">
<stop stop-color="#FBB784"/>
<stop offset="1" stop-color="#F37821"/>
</linearGradient>
<linearGradient id="paint10_linear_303_82" x1="164.147" y1="96.1355" x2="164.147" y2="58.7446" gradientUnits="userSpaceOnUse">
<stop stop-color="#FBB784"/>
<stop offset="1" stop-color="#F37821"/>
</linearGradient>
<linearGradient id="paint11_linear_303_82" x1="93.1628" y1="96.1355" x2="93.1628" y2="58.7446" gradientUnits="userSpaceOnUse">
<stop stop-color="#FBB784"/>
<stop offset="1" stop-color="#F37821"/>
</linearGradient>
</defs>
</svg>
