<svg width="24" height="24" viewBox="0 0 24 24" fill="none" xmlns="http://www.w3.org/2000/svg">
<path d="M3.6001 5.99961C3.6001 5.36309 3.85295 4.75264 4.30304 4.30255C4.75313 3.85247 5.36358 3.59961 6.0001 3.59961H7.2001V7.79961C7.2001 8.277 7.38974 8.73484 7.7273 9.0724C8.06487 9.40997 8.52271 9.59961 9.0001 9.59961H13.8001C14.2775 9.59961 14.7353 9.40997 15.0729 9.0724C15.4105 8.73484 15.6001 8.277 15.6001 7.79961V3.59961H16.0549C16.6914 3.59975 17.3017 3.85269 17.7517 4.30281L19.6969 6.24801C20.147 6.69799 20.4 7.30834 20.4001 7.94481V17.9996C20.4001 18.6361 20.1472 19.2466 19.6972 19.6967C19.2471 20.1468 18.6366 20.3996 18.0001 20.3996V13.7996C18.0001 13.3222 17.8105 12.8644 17.4729 12.5268C17.1353 12.1893 16.6775 11.9996 16.2001 11.9996H7.8001C7.32271 11.9996 6.86487 12.1893 6.52731 12.5268C6.18974 12.8644 6.0001 13.3222 6.0001 13.7996V20.3996C5.36358 20.3996 4.75313 20.1468 4.30304 19.6967C3.85295 19.2466 3.6001 18.6361 3.6001 17.9996V5.99961ZM14.4001 3.59961H8.4001V7.79961C8.4001 7.95874 8.46331 8.11135 8.57583 8.22387C8.68836 8.33639 8.84097 8.39961 9.0001 8.39961H13.8001C13.9592 8.39961 14.1118 8.33639 14.2244 8.22387C14.3369 8.11135 14.4001 7.95874 14.4001 7.79961V3.59961ZM16.8001 13.7996V20.3996H7.2001V13.7996C7.2001 13.6405 7.26331 13.4879 7.37583 13.3753C7.48836 13.2628 7.64097 13.1996 7.8001 13.1996H16.2001C16.3592 13.1996 16.5118 13.2628 16.6244 13.3753C16.7369 13.4879 16.8001 13.6405 16.8001 13.7996Z" fill="#F27B21"/>
</svg>
