<svg width="587" height="167" viewBox="0 0 587 167" fill="none" xmlns="http://www.w3.org/2000/svg">
<circle cx="39.0158" cy="25.9347" r="25.9347" fill="url(#paint0_linear_280_98)"/>
<mask id="mask0_280_98" style="mask-type:luminance" maskUnits="userSpaceOnUse" x="14" y="23" width="50" height="5">
<path d="M39.7114 27.3501L39.5583 27.197C39.5583 27.197 39.5583 27.197 39.7114 27.3501ZM39.5583 27.0439C39.4052 27.0439 39.5583 27.0439 39.5583 27.0439C39.4052 27.0439 39.5583 27.0439 39.5583 27.0439ZM39.4052 27.0439C39.4052 26.8908 39.4052 26.8908 39.4052 27.0439C39.4052 26.8908 39.4052 26.8908 39.4052 27.0439ZM39.4052 26.8908C39.2521 26.8908 39.4052 26.8908 39.4052 26.8908C39.2521 26.8908 39.4052 26.8908 39.4052 26.8908ZM39.2521 26.5846C39.099 26.5846 39.2521 26.5846 39.2521 26.5846C39.099 26.5846 39.2521 26.5846 39.2521 26.5846ZM38.9459 26.4315C38.7928 26.2785 38.9459 26.4315 38.9459 26.4315C38.7928 26.2785 38.9459 26.4315 38.9459 26.4315ZM38.7928 26.1254C38.6397 26.1254 38.6397 26.1254 38.7928 26.1254C38.6397 26.1254 38.6397 26.1254 38.7928 26.1254ZM38.6397 26.1254C38.4866 26.1254 38.6397 26.1254 38.6397 26.1254C38.4866 26.1254 38.6397 26.1254 38.6397 26.1254ZM38.3335 25.9723C38.3335 25.8192 38.3335 25.9723 38.3335 25.9723C38.3335 25.8192 38.3335 25.9723 38.3335 25.9723ZM38.3335 25.8192C38.1804 25.8192 38.3335 25.8192 38.3335 25.8192C38.1804 25.8192 38.3335 25.8192 38.3335 25.8192ZM38.1804 25.8192C38.0273 25.6661 37.8742 25.6661 37.7212 25.513C37.8742 25.513 38.0273 25.6661 38.1804 25.8192ZM42.9263 24.7475C42.9263 24.7475 43.0794 24.7475 42.9263 24.7475C42.9263 24.7475 43.0794 24.7475 42.9263 24.7475ZM26.3922 23.982C22.7179 23.8289 18.8906 23.8289 14.9102 23.2166C18.7375 23.8289 22.7179 23.8289 26.3922 23.982ZM53.9491 23.0635C49.6625 23.0635 45.9882 23.3697 43.0794 24.5944C45.9882 23.3697 49.8156 23.0635 53.9491 23.0635ZM53.9491 23.0635C55.1739 23.0635 56.3986 23.0635 57.7765 23.0635C59.0012 23.0635 60.3791 23.0635 61.7569 23.0635H63.1347H61.91C60.5321 23.0635 59.3074 23.0635 57.9296 23.0635C56.5517 23.2166 55.327 23.0635 53.9491 23.0635Z" fill="white"/>
</mask>
<g mask="url(#mask0_280_98)">
<path d="M41.5483 -0.819336L65.1247 25.5128L36.4962 51.2326L12.7666 25.0535L41.5483 -0.819336Z" fill="url(#paint1_linear_280_98)"/>
</g>
<mask id="mask1_280_98" style="mask-type:luminance" maskUnits="userSpaceOnUse" x="36" y="30" width="7" height="6">
<path d="M36.8028 35.6178L36.9559 35.4647C36.8028 35.4647 36.8028 35.6178 36.8028 35.6178ZM36.8028 35.6178C36.8028 35.4647 36.8028 35.4647 36.8028 35.3116C36.6497 35.4647 36.8028 35.6178 36.8028 35.6178ZM36.9559 35.4647L37.109 35.3116C36.9559 35.3116 36.9559 35.3116 36.9559 35.4647ZM37.109 35.1585L37.2621 35.0054C37.109 35.1585 37.109 35.1585 37.109 35.1585ZM36.6497 35.1585C36.6497 35.0054 36.6497 35.0054 36.6497 35.1585C36.6497 35.0054 36.6497 35.0054 36.6497 35.1585ZM37.2621 35.0054L37.4152 34.8523C37.2621 34.8523 37.2621 35.0054 37.2621 35.0054ZM36.4966 34.6992C36.4966 34.5461 36.4966 34.5461 36.4966 34.6992C36.4966 34.5461 36.4966 34.5461 36.4966 34.6992ZM37.5683 34.6992C37.5683 34.5461 37.5683 34.5461 37.5683 34.6992C37.5683 34.5461 37.5683 34.5461 37.5683 34.6992ZM37.7214 34.5461L37.8745 34.393C37.7214 34.393 37.7214 34.393 37.7214 34.5461ZM36.4966 34.2399C36.4966 34.0869 36.4966 34.2399 36.4966 34.2399C36.4966 34.0869 36.4966 34.2399 36.4966 34.2399ZM36.1904 33.4745C36.1904 33.3214 36.1904 33.4745 36.1904 33.4745C36.1904 33.3214 36.1904 33.4745 36.1904 33.4745ZM37.8745 34.2399C38.793 33.1683 39.8647 32.2497 41.0894 31.4843C39.8647 32.2497 38.793 33.1683 37.8745 34.2399ZM41.0894 31.6373C41.0894 31.6373 41.2425 31.6374 41.2425 31.4843C41.2425 31.4843 41.0894 31.4843 41.0894 31.6373ZM41.2425 31.4843C41.2425 31.3312 41.3956 31.3312 41.2425 31.4843C41.2425 31.3312 41.3956 31.3312 41.2425 31.4843ZM41.3956 31.3312C41.5487 31.1781 41.5487 31.3312 41.3956 31.3312C41.5487 31.1781 41.5487 31.3312 41.3956 31.3312ZM41.8549 31.025C41.8549 31.025 42.008 31.025 41.8549 31.025C41.8549 31.025 42.008 31.025 41.8549 31.025ZM42.008 31.025C42.1611 30.8719 42.1611 30.8719 42.008 31.025C42.1611 30.8719 42.1611 30.8719 42.008 31.025Z" fill="white"/>
</mask>
<g mask="url(#mask1_280_98)">
<path d="M39.5586 27.5039L44.9168 33.4746L38.9462 38.8329L33.5879 33.0153L39.5586 27.5039Z" fill="url(#paint2_linear_280_98)"/>
</g>
<path d="M81.506 19.0832C81.1998 18.777 80.7406 18.777 80.4344 18.9301C77.6787 20.461 74.4637 21.3796 71.4018 21.8389C69.5647 22.1451 67.5745 22.2982 65.7374 22.4513C64.8188 22.4513 63.9002 22.4513 63.1348 22.4513C61.2976 22.4513 59.6136 22.4513 57.9296 22.4513C56.7048 22.4513 55.327 22.4513 54.1022 22.4513C48.5908 22.4513 43.0795 22.7575 39.8645 26.1255C37.2619 23.5229 32.0567 23.3698 26.2391 23.2167C22.8711 23.2167 19.0437 23.0636 15.3695 22.4513C14.7571 22.4513 14.2978 22.2982 13.6854 22.1451C10.0112 21.3796 6.6431 20.1549 3.73431 17.7054C2.96884 17.093 2.35647 16.4806 1.74409 15.7151C1.13172 15.2559 0.672435 15.2559 0.366247 15.4089C0.0600593 15.7151 -0.0930344 16.1744 0.0600595 16.4806C3.73431 23.3698 8.78641 26.2786 13.8385 27.6565C17.3597 28.575 20.8808 28.7281 24.0958 28.8812C31.4443 29.1874 35.2717 29.7998 35.884 35.6173C35.884 35.9235 36.1902 36.2297 36.6495 36.3828H36.8026C37.1088 36.3828 37.415 36.2297 37.5681 36.0766C42.1609 29.6467 50.1218 28.8812 58.695 28.2688C60.9914 28.1157 63.2879 27.9626 65.5843 27.6565C71.708 26.891 77.5256 25.0539 81.8122 20.1549C81.6591 19.8487 81.6591 19.3894 81.506 19.0832ZM67.4214 25.5131C64.5126 26.1255 61.4507 26.2786 58.3889 26.5848C50.5811 27.1972 42.4671 27.8096 37.2619 33.474C35.7309 27.8096 30.0665 27.5034 24.2489 27.1972C19.9623 26.891 15.2164 26.7379 11.0828 24.7477C9.0926 23.8291 7.25547 22.6044 5.57144 20.9203C6.49 21.5327 7.56166 21.992 8.48023 22.2982C14.1447 24.4415 20.5746 24.5946 26.086 24.5946C32.0567 24.7477 37.2619 24.7477 38.9459 27.5034C39.099 27.8096 39.4052 27.9626 39.7114 27.9626C40.0176 27.9626 40.3238 27.8096 40.4769 27.6565C42.7733 24.4415 47.3661 23.8291 54.1022 23.8291C55.327 23.8291 56.5517 23.8291 57.9296 23.8291C61.6038 23.8291 65.5843 23.9822 69.4116 23.5229C71.708 23.2167 74.0044 22.9105 76.3008 22.2982C73.3921 24.1353 70.4833 25.0539 67.4214 25.5131Z" fill="#1226AA"/>
<path d="M39.558 27.3497C35.1182 19.8481 12.1541 29.3399 0.825195 16.1738C11.848 36.8415 35.1182 20.9197 36.6492 35.7699C46.2941 22.2976 69.7175 32.8611 80.7402 19.695C66.5025 27.5028 45.8348 18.7764 39.558 27.3497Z" fill="white"/>
<path d="M7.56152 116.758H40.936L52.7242 54.4484C52.7242 54.4484 36.6494 63.0216 20.1152 51.2334L7.56152 116.758Z" fill="#F37821"/>
<mask id="mask2_280_98" style="mask-type:luminance" maskUnits="userSpaceOnUse" x="13" y="51" width="40" height="36">
<path d="M13.2266 86.9035H46.601L52.7248 54.4476C52.2655 54.7538 46.7541 57.5095 39.0994 57.5095C33.5881 57.5095 26.8519 56.1317 20.1158 51.3857L13.2266 86.9035Z" fill="white"/>
</mask>
<g mask="url(#mask2_280_98)">
<path d="M52.7248 51.2334H13.2266V86.9043H52.7248V51.2334Z" fill="url(#paint3_linear_280_98)"/>
</g>
<path d="M121.617 116.91H120.239H96.2029H95.2844L94.8251 116.145L78.1379 86.2914L72.6265 115.532L72.3203 116.757H70.9424H49.05H47.2129L47.5191 114.92L58.6949 55.6726L59.0011 54.4479H60.379H84.5678H85.4864L85.9456 55.2133L102.939 86.5976L108.757 55.6726L109.063 54.4479H110.441H131.874H133.711L133.405 56.285L122.229 115.532L121.617 116.91ZM168.31 116.91H166.932H142.131H140.141L140.447 115.073L147.949 75.881H135.395H133.558L133.864 74.0439L137.232 55.9788L137.538 54.754H138.916H192.805H194.642L194.336 56.5912L190.968 74.6563L190.662 75.881H189.284H176.118L168.463 115.685L168.31 116.91ZM237.356 116.91H235.978H188.978H187.141L187.447 115.073L198.623 55.8257L198.776 54.6009H200.154H247.154H248.991L248.685 56.4381L245.776 71.4413L245.47 72.666H244.092H223.271L222.505 77.1058H241.03H242.867L242.561 78.9429L239.805 93.1806L239.499 94.4054H238.121H219.137L218.219 98.9982H238.427H240.417L240.111 100.835L237.202 115.839L237.356 116.91ZM275.476 81.5455H276.395C282.212 81.5455 284.662 80.3207 285.274 77.1058C285.733 74.8094 284.815 73.8908 283.896 73.4315C282.518 72.666 280.375 72.666 278.385 72.666H277.007L275.476 81.5455ZM312.218 116.91H309.31H281.753H280.681L280.222 115.992L272.261 98.9982L269.046 115.685L268.74 116.91H267.362H243.173H241.336L241.642 115.073L252.818 55.8257L253.124 54.6009H254.502H285.733C297.062 54.6009 305.329 57.3566 309.769 62.4087C312.984 66.083 313.903 70.8289 312.831 76.6465C311.147 85.3728 306.707 89.8126 296.144 92.7213L310.534 114.461L312.218 116.91ZM410.199 93.3337H419.843L417.853 76.9527L410.199 93.3337ZM452.299 116.91H450.309H424.13H422.752L422.599 115.532L421.834 109.255H403.003L399.941 115.992L399.482 116.91H398.41H372.384H369.629L371.007 114.614L406.831 55.3664L407.29 54.6009H408.208H436.378H437.602L437.909 55.8257L451.993 115.073L452.299 116.91ZM489.348 81.6986H491.032C497.309 81.6986 500.371 80.1676 500.983 76.7996C501.289 74.9624 500.677 73.8908 498.993 73.2784C497.309 72.666 495.013 72.666 492.869 72.666H491.032L489.348 81.6986ZM482.612 116.91H481.387H457.658H455.821L456.127 115.073L467.303 55.8257L467.456 54.6009H468.834H501.596C512.159 54.6009 519.967 57.3566 524.254 62.4087C527.622 66.3892 528.693 71.5944 527.622 77.8712C525.172 90.7311 514.149 98.5389 498.993 98.5389H486.133L482.918 115.532L482.612 116.91ZM574.468 116.91H573.091H526.091H524.254L524.56 115.073L535.736 55.8257L535.889 54.6009H537.267H584.266H586.103L585.797 56.4381L582.889 71.4413L582.582 72.666H581.205H560.384L559.618 77.1058H578.143H579.98L579.674 78.9429L576.918 93.1806L576.612 94.4054H575.234H556.25L555.332 98.9982H575.54H577.377L577.071 100.835L574.162 115.839L574.468 116.91ZM347.124 117.829C335.948 117.829 326.456 114.001 320.486 107.112C315.587 101.448 313.749 93.9461 315.127 86.1383C318.648 67.9201 338.244 53.5293 359.984 53.5293C365.648 53.5293 371.466 54.2948 376.824 55.8257L378.202 56.285L377.896 57.6628L373.915 78.4836L373.456 81.0862L371.313 79.2491C368.557 76.7996 364.883 74.3501 359.218 74.3501C351.564 74.3501 344.521 79.4022 343.297 85.679C342.837 88.2816 343.45 90.7311 345.134 92.5683C347.277 95.1708 351.104 96.5487 355.085 96.5487C359.984 96.5487 363.964 95.3239 368.404 92.5683L371.466 90.578L370.853 94.0992L367.026 114.001L366.873 114.92L365.954 115.226C361.362 117.063 352.023 117.829 347.124 117.829Z" fill="#F37821"/>
<mask id="mask3_280_98" style="mask-type:luminance" maskUnits="userSpaceOnUse" x="314" y="53" width="65" height="34">
<path d="M315.128 86.1375C315.128 86.4437 314.975 86.5968 314.975 86.903H343.144C343.144 86.5968 343.144 86.2906 343.297 85.9845C344.522 79.7076 351.564 74.6555 359.219 74.6555C364.73 74.6555 368.404 77.105 371.313 79.5545L373.456 81.2385L373.916 78.636L377.896 57.8152L378.202 56.4373L376.825 55.978C371.619 54.4471 365.802 53.6816 359.984 53.6816C338.398 53.6816 318.649 67.9194 315.128 86.1375Z" fill="white"/>
</mask>
<g mask="url(#mask3_280_98)">
<path d="M378.049 53.6816H314.975V86.903H378.049V53.6816Z" fill="url(#paint4_linear_280_98)"/>
</g>
<mask id="mask4_280_98" style="mask-type:luminance" maskUnits="userSpaceOnUse" x="529" y="54" width="58" height="33">
<path d="M584.419 54.6006H537.266H536.042L535.736 55.8253L529.918 86.9034H578.449L579.98 78.7894L580.286 76.9523H578.449H559.924L560.69 72.6657H581.511H582.888L583.042 71.2878L585.95 56.4377L586.257 54.6006H584.419Z" fill="white"/>
</mask>
<g mask="url(#mask4_280_98)">
<path d="M586.257 54.6006H529.918V86.9034H586.257V54.6006Z" fill="url(#paint5_linear_280_98)"/>
</g>
<mask id="mask5_280_98" style="mask-type:luminance" maskUnits="userSpaceOnUse" x="461" y="53" width="65" height="34">
<path d="M491.032 72.6658H492.87C495.013 72.6658 497.309 72.6658 498.993 73.2782C499.606 73.5844 500.218 74.0437 500.371 74.5029C500.524 74.9622 500.677 75.4215 500.524 75.8808C500.524 76.0339 500.524 76.187 500.371 76.3401C499.759 79.8612 496.697 81.2391 490.42 81.2391H488.736L491.032 72.6658ZM468.834 54.6007H467.456L467.303 55.8255L461.485 86.9035H524.101C524.101 86.9035 524.101 86.9035 524.254 86.7504C524.254 86.7504 524.254 86.7504 524.254 86.5974C524.254 86.5974 524.254 86.5974 524.254 86.4443V86.2912C524.254 86.2912 524.254 86.2912 524.254 86.1381V85.985V85.8319V85.6788V85.5257V85.3726C524.254 85.3726 524.254 85.3726 524.254 85.2195V85.0664C524.254 85.0664 524.254 85.0664 524.254 84.9133V84.7602V84.6071C524.254 84.6071 524.254 84.6071 524.254 84.454V84.3009C524.254 84.3009 524.254 84.3009 524.254 84.1479V83.9948C524.254 83.9948 524.254 83.9948 524.254 83.8417V83.6886V83.5355V83.3824C524.254 83.3824 524.254 83.3824 524.254 83.2293C524.254 83.2293 524.254 83.2293 524.254 83.0762C524.254 83.0762 524.254 83.0762 524.254 82.9231C524.254 82.9231 524.254 82.9231 524.254 82.77V82.6169V82.4638C524.254 82.4638 524.254 82.4638 524.254 82.3107C524.254 82.3107 524.254 82.3107 524.254 82.1576C524.254 82.1576 524.254 82.1576 524.254 82.0045C524.254 82.0045 524.254 82.0045 524.254 81.8514V81.6984V81.5453C524.254 81.5453 524.254 81.5453 524.254 81.3922C524.254 81.3922 524.254 81.3922 524.254 81.2391V81.086C524.254 81.086 524.254 81.086 524.254 80.9329C524.254 80.9329 524.254 80.9329 524.254 80.7798V80.6267C524.254 80.4736 524.407 80.3205 524.407 80.1674V80.0143V79.8612V79.7081V79.555C524.56 78.7896 524.866 78.0241 525.019 77.2586C525.019 77.1055 525.019 77.1055 525.019 76.9524C525.019 76.9524 525.019 76.9524 525.019 76.7993C525.019 76.7993 525.019 76.7993 525.019 76.6463V76.4932C525.326 74.9622 525.479 73.5844 525.479 72.2065C525.479 72.2065 525.479 72.2065 525.479 72.0534C525.479 67.9199 524.254 64.2456 521.804 61.3369C521.804 61.3369 521.804 61.1838 521.651 61.1838C517.365 56.1317 509.404 53.376 498.993 53.376H468.834V54.6007Z" fill="white"/>
</mask>
<g mask="url(#mask5_280_98)">
<path d="M528.806 55.2012H462.057V87.504H528.806V55.2012Z" fill="url(#paint6_linear_280_98)"/>
</g>
<mask id="mask6_280_98" style="mask-type:luminance" maskUnits="userSpaceOnUse" x="387" y="54" width="59" height="33">
<path d="M436.224 54.6006H408.055H407.136L406.677 55.3661L387.693 86.9034H413.26L417.853 76.9523L419.078 86.9034H445.104L437.755 55.8253L437.449 54.6006H436.224Z" fill="white"/>
</mask>
<g mask="url(#mask6_280_98)">
<path d="M445.257 54.6006H387.693V86.9034H445.257V54.6006Z" fill="url(#paint7_linear_280_98)"/>
</g>
<mask id="mask7_280_98" style="mask-type:luminance" maskUnits="userSpaceOnUse" x="247" y="54" width="66" height="33">
<path d="M277.16 72.6657H278.538C280.528 72.6657 282.671 72.8188 284.049 73.4311C284.814 73.8904 285.733 74.6559 285.274 76.9523C284.661 80.1673 282.212 81.392 276.394 81.392H275.476L277.16 72.6657ZM254.655 54.6006H253.277L252.971 55.8253L247.153 86.9034H307.779C309.463 85.2194 310.687 83.3822 311.606 81.0858C311.606 81.0858 311.606 81.0858 311.606 80.9327C311.606 80.9327 311.606 80.9327 311.606 80.7796C311.606 80.7796 311.606 80.7796 311.606 80.6266C311.606 80.6266 311.606 80.6266 311.606 80.4735C311.606 80.4735 311.606 80.4735 311.606 80.3204C311.606 80.3204 311.606 80.3204 311.606 80.1673C311.606 80.1673 311.606 80.1673 311.606 80.0142C311.606 80.0142 311.606 80.0142 311.606 79.8611C311.606 79.8611 311.606 79.8611 311.606 79.708C311.606 79.708 311.606 79.708 311.606 79.5549C311.606 79.5549 311.606 79.5549 311.606 79.4018C311.606 79.4018 311.606 79.4018 311.606 79.2487C311.606 79.2487 311.606 79.2487 311.606 79.0956C311.606 79.0956 311.606 79.0956 311.606 78.9425C311.606 78.9425 311.606 78.9425 311.606 78.7894C311.606 78.7894 311.606 78.7894 311.606 78.6363C311.606 78.6363 311.606 78.6363 311.606 78.4832C311.606 78.4832 311.606 78.4832 311.606 78.3301C311.606 78.3301 311.606 78.3301 311.606 78.1771C311.606 78.1771 311.606 78.1771 311.606 78.024C311.606 78.024 311.606 78.024 311.606 77.8709C311.606 77.8709 311.606 77.8709 311.606 77.7178C311.606 77.7178 311.606 77.7178 311.606 77.5647C311.606 77.5647 311.606 77.5647 311.606 77.4116C311.606 77.4116 311.606 77.4116 311.606 77.2585C311.606 77.2585 311.606 77.2585 311.606 77.1054C311.606 77.1054 311.606 77.1054 311.606 76.9523C311.606 76.9523 311.606 76.9523 311.606 76.7992V76.6461V76.493C312.218 73.5842 312.218 70.9816 311.759 68.6852C311.759 68.5321 311.759 68.5321 311.759 68.379C311.759 68.379 311.759 68.379 311.759 68.2259V68.0729C311.759 68.0729 311.759 68.0729 311.759 67.9198V67.7667C311.759 67.7667 311.759 67.7667 311.759 67.6136C311.759 67.6136 311.759 67.6136 311.759 67.4605C311.759 67.4605 311.759 67.4605 311.759 67.3074C311.759 67.3074 311.759 67.3074 311.759 67.1543C311.759 67.1543 311.759 67.1543 311.759 67.0012C311.759 67.0012 311.759 67.0012 311.759 66.8481C311.759 66.8481 311.759 66.695 311.606 66.695V66.5419C311.606 66.5419 311.606 66.5419 311.606 66.3888V66.2357C311.606 66.2357 311.606 66.0826 311.453 66.0826C311.453 65.9295 311.453 65.9295 311.3 65.9295C311.3 65.9295 311.3 65.7764 311.147 65.7764V65.6233V65.4703C311.147 65.3172 310.993 65.3172 310.993 65.3172C310.993 65.1641 310.994 65.1641 310.84 65.1641V65.011C310.84 65.011 310.84 65.011 310.84 64.8579C310.84 64.8579 310.84 64.8579 310.84 64.7048C310.84 64.7048 310.84 64.7048 310.84 64.5517C306.554 59.4996 298.134 56.7439 286.958 56.7439H254.655V54.6006Z" fill="white"/>
</mask>
<g mask="url(#mask7_280_98)">
<path d="M313.443 54.6006H247.153V86.9034H313.443V54.6006Z" fill="url(#paint8_linear_280_98)"/>
</g>
<mask id="mask8_280_98" style="mask-type:luminance" maskUnits="userSpaceOnUse" x="192" y="54" width="58" height="33">
<path d="M247.307 54.6006H200.154H198.929L198.623 55.8253L192.806 86.9034H241.336L242.867 78.7894L243.174 76.9523H241.336H222.812L223.578 72.6657H244.398H245.776L245.929 71.2878L248.838 56.4377L249.144 54.6006H247.307Z" fill="white"/>
</mask>
<g mask="url(#mask8_280_98)">
<path d="M249.144 54.6006H192.806V86.9034H249.144V54.6006Z" fill="url(#paint9_linear_280_98)"/>
</g>
<mask id="mask9_280_98" style="mask-type:luminance" maskUnits="userSpaceOnUse" x="133" y="54" width="62" height="33">
<path d="M192.805 54.6006H138.916H137.538L137.385 55.8253L133.864 73.8904L133.558 75.7276H135.395H148.255L146.111 86.9034H174.128L176.118 75.7276H189.437H190.662L190.968 74.5028L194.336 56.4377L194.642 54.6006H192.805Z" fill="white"/>
</mask>
<g mask="url(#mask9_280_98)">
<path d="M194.642 54.6006H133.558V86.9034H194.642V54.6006Z" fill="url(#paint10_linear_280_98)"/>
</g>
<mask id="mask10_280_98" style="mask-type:luminance" maskUnits="userSpaceOnUse" x="52" y="54" width="82" height="33">
<path d="M131.567 54.6006H110.134H108.909L108.603 55.8253L102.786 86.9034L85.7921 55.3661L85.486 54.6006H84.4143H60.2255H59.0007L58.6945 55.8253L52.877 86.9034H77.9844L78.1374 86.291L78.4436 86.9034H127.281L133.098 56.4377L133.404 54.6006H131.567Z" fill="white"/>
</mask>
<g mask="url(#mask10_280_98)">
<path d="M133.557 54.6006H52.877V86.9034H133.557V54.6006Z" fill="url(#paint11_linear_280_98)"/>
</g>
<path d="M30.5256 136.659L29.3008 140.18C28.3822 139.721 27.4637 139.414 26.5451 139.261C25.6265 139.108 24.708 138.955 23.6363 138.955C22.2585 138.955 21.1868 139.261 20.2683 139.721C19.5028 140.18 19.0435 140.792 19.0435 141.711C19.0435 142.17 19.1966 142.783 19.6559 143.242C19.9621 143.701 20.5744 144.16 21.3399 144.62L21.9523 144.926C24.4018 146.304 25.9327 147.375 26.5451 147.988C27.0044 148.6 27.4637 149.213 27.7699 149.825C28.0761 150.437 28.2291 151.203 28.2291 151.815C28.2291 154.112 27.1575 155.949 25.3204 157.326C23.3301 158.704 20.5744 159.47 17.2064 159.47C15.9816 159.47 14.7569 159.317 13.5321 159.164C12.3074 159.011 11.2357 158.704 10.1641 158.245L11.3888 154.571C12.3074 155.03 13.379 155.489 14.4507 155.642C15.5224 155.949 16.594 156.102 17.6657 156.102C19.1966 156.102 20.5745 155.796 21.493 155.183C22.4116 154.571 22.8709 153.805 22.8709 152.887C22.8709 151.662 21.493 150.284 18.8904 148.753C18.278 148.447 17.8188 148.141 17.5126 147.988C16.4409 147.375 15.5223 146.457 14.91 145.538C14.2976 144.62 13.9914 143.548 13.9914 142.629C13.9914 140.486 14.91 138.802 16.7471 137.577C18.5842 136.353 21.0337 135.74 24.2487 135.74C25.4735 135.74 26.5451 135.893 27.6168 136.046C28.3822 136.046 29.4539 136.2 30.5256 136.659Z" fill="#F27B21"/>
<path d="M48.744 149.672L47.5193 154.724C47.3662 155.642 47.06 156.561 47.06 157.173C46.9069 157.786 46.7538 158.551 46.7538 159.011H42.7734L43.2326 156.408C42.4672 157.327 41.5486 158.092 40.4769 158.551C39.4053 159.011 38.3336 159.317 36.9558 159.317C35.1187 159.317 33.7408 158.857 32.5161 157.939C31.4444 157.02 30.832 155.796 30.832 154.418C30.832 152.428 31.7506 151.05 33.5877 149.978C35.4248 148.906 38.0274 148.294 41.2424 148.294C41.5486 148.294 42.0079 148.294 42.4672 148.294C42.9264 148.294 43.6919 148.294 44.4574 148.447C44.4574 148.294 44.4574 148.141 44.4574 147.988C44.4574 147.835 44.4574 147.835 44.4574 147.682C44.4574 146.61 44.1512 145.844 43.3857 145.385C42.7734 144.773 41.7017 144.62 40.4769 144.62C39.5584 144.62 38.6398 144.773 37.7213 144.926C36.8027 145.079 35.731 145.385 34.8125 145.844L35.4248 142.629C36.3434 142.323 37.4151 142.017 38.4867 141.864C39.4053 141.711 40.4769 141.711 41.5486 141.711C43.9981 141.711 45.8352 142.17 47.06 143.089C48.2847 144.007 49.0502 145.385 49.0502 147.222C49.0502 147.529 49.0502 147.835 49.0502 148.294C48.8971 148.753 48.8971 149.213 48.744 149.672ZM43.9981 150.897H43.845C43.0795 150.897 42.4672 150.743 42.161 150.743C40.0177 150.743 38.3336 151.05 37.262 151.509C36.1903 152.121 35.5779 152.887 35.5779 154.112C35.5779 154.877 35.8841 155.336 36.3434 155.796C36.8027 156.255 37.5682 156.408 38.4867 156.408C39.8646 156.408 41.0893 155.949 42.161 154.877C43.0795 153.958 43.6919 152.734 43.9981 150.897Z" fill="#F27B21"/>
<path d="M68.6459 134.362L67.7274 137.424C67.4212 137.271 66.9619 137.271 66.6557 137.118C66.3495 137.118 66.0433 136.965 65.7371 136.965C64.9717 136.965 64.3593 137.271 63.7469 137.73C63.1345 138.19 62.8284 138.955 62.5222 139.721L61.9098 142.017H66.6557L65.8902 145.232H61.1443L57.9294 159.01H53.0303L56.2453 145.232H52.418L53.1834 142.017H57.0108L57.7763 139.108C58.2355 137.424 59.001 136.046 60.3789 135.128C61.6036 134.209 63.2876 133.75 65.2779 133.75C65.8902 133.75 66.3495 133.75 66.9619 133.903C67.5743 134.056 68.1866 134.209 68.6459 134.362Z" fill="#F27B21"/>
<path d="M84.4149 151.662H71.0957V151.815C71.0957 151.968 71.0957 151.968 71.0957 152.274C71.0957 153.499 71.555 154.57 72.4736 155.183C73.3922 155.948 74.6169 156.254 76.3009 156.254C77.2195 156.254 78.1381 156.101 79.0566 155.948C79.9752 155.795 80.7407 155.489 81.6592 155.183L81.353 158.551C80.2814 158.857 79.3628 159.163 78.2912 159.316C77.2195 159.469 76.3009 159.469 75.2293 159.469C72.4736 159.469 70.3303 158.704 68.7993 157.326C67.2684 155.948 66.5029 153.958 66.5029 151.662C66.5029 150.284 66.8091 149.059 67.2684 147.834C67.8808 146.609 68.4932 145.538 69.5648 144.466C70.6365 143.395 71.7081 142.782 72.9329 142.17C74.1576 141.71 75.5355 141.404 77.2195 141.404C79.5159 141.404 81.353 142.017 82.5778 143.241C83.9556 144.466 84.568 146.15 84.568 148.294C84.568 148.753 84.568 149.212 84.4149 149.824C84.7211 150.59 84.568 151.049 84.4149 151.662ZM80.5876 149.059C80.5876 148.6 80.5876 148.294 80.5876 148.14C80.5876 147.069 80.2814 146.15 79.669 145.538C79.0566 144.925 78.1381 144.619 77.0664 144.619C75.8417 144.619 74.6169 145.079 73.6983 145.844C72.7798 146.609 72.0143 147.681 71.7081 149.212H80.5876V149.059Z" fill="#F27B21"/>
<path d="M102.939 146.763C102.939 145.386 103.399 144.314 104.47 143.395C105.542 142.477 106.767 142.018 108.145 142.018C109.676 142.018 110.9 142.477 111.819 143.395C112.891 144.314 113.35 145.539 113.35 146.763C113.35 148.141 112.891 149.213 111.819 150.132C110.747 151.05 109.522 151.509 108.145 151.509C106.614 151.509 105.389 151.05 104.47 150.132C103.399 149.213 102.939 147.988 102.939 146.763Z" fill="#F27B21"/>
<path d="M135.242 136.047H142.284C146.418 136.047 149.48 136.965 151.623 138.649C153.766 140.334 154.838 142.783 154.838 146.151C154.838 148.447 154.226 150.591 153.154 152.581C152.082 154.571 150.551 156.102 148.714 157.021C147.336 157.786 145.959 158.245 144.275 158.705C142.744 159.011 140.753 159.164 138.61 159.164H129.884L135.242 136.047ZM139.529 139.415L135.854 155.49H138.763C140.294 155.49 141.672 155.337 142.897 155.031C143.968 154.724 145.04 154.265 145.806 153.653C146.877 152.734 147.796 151.662 148.561 150.285C149.327 148.754 149.633 147.376 149.633 145.845C149.633 143.702 149.021 142.171 147.796 141.099C146.571 140.027 144.734 139.415 142.437 139.415H139.529Z" fill="#F27B21"/>
<path d="M174.893 151.662H161.574V151.815C161.574 151.968 161.574 151.968 161.574 152.274C161.574 153.499 162.034 154.57 162.952 155.183C163.871 155.948 165.095 156.254 166.779 156.254C167.698 156.254 168.617 156.101 169.535 155.948C170.454 155.795 171.219 155.489 172.138 155.183L171.832 158.551C170.76 158.857 169.841 159.163 168.77 159.316C167.698 159.469 166.779 159.469 165.708 159.469C162.952 159.469 160.809 158.704 159.278 157.326C157.747 155.948 156.981 153.958 156.981 151.662C156.981 150.284 157.288 149.059 157.747 147.834C158.206 146.609 158.972 145.538 160.043 144.466C161.115 143.395 162.187 142.782 163.411 142.17C164.636 141.71 166.014 141.404 167.698 141.404C169.994 141.404 171.832 142.017 173.056 143.241C174.434 144.466 175.047 146.15 175.047 148.294C175.047 148.753 175.047 149.212 174.893 149.824C175.2 150.59 175.047 151.049 174.893 151.662ZM171.066 149.059C171.066 148.6 171.066 148.294 171.066 148.14C171.066 147.069 170.76 146.15 170.148 145.538C169.535 144.925 168.617 144.619 167.545 144.619C166.32 144.619 165.095 145.079 164.177 145.844C163.258 146.609 162.493 147.681 162.187 149.212H171.066V149.059Z" fill="#F27B21"/>
<path d="M182.855 156.102L180.558 166.053H175.659L181.324 142.017H185.61L184.998 145.079C185.916 144.008 186.835 143.242 188.06 142.63C189.131 142.017 190.356 141.864 191.734 141.864C193.877 141.864 195.561 142.477 196.786 143.854C198.011 145.079 198.623 146.916 198.623 149.213C198.623 152.275 197.705 154.724 196.021 156.714C194.184 158.705 192.04 159.623 189.285 159.623C187.754 159.623 186.529 159.317 185.457 158.705C184.232 158.092 183.467 157.174 182.855 156.102ZM193.571 149.213C193.571 147.988 193.265 146.916 192.5 146.304C191.887 145.692 190.969 145.232 189.744 145.232C188.213 145.232 186.835 145.998 185.763 147.223C184.539 148.6 184.079 150.131 184.079 151.968C184.079 153.193 184.386 154.265 185.151 155.03C185.916 155.796 186.835 156.255 188.06 156.255C189.591 156.255 190.815 155.643 192.04 154.265C192.959 152.734 193.571 151.05 193.571 149.213Z" fill="#F27B21"/>
<path d="M218.984 151.662H205.818V151.815C205.818 151.968 205.818 151.968 205.818 152.274C205.818 153.499 206.278 154.57 207.196 155.183C208.115 155.948 209.34 156.254 211.024 156.254C211.942 156.254 212.861 156.101 213.779 155.948C214.698 155.795 215.463 155.489 216.382 155.183L216.076 158.551C215.004 158.857 214.085 159.163 213.014 159.316C211.942 159.469 211.024 159.469 209.952 159.469C207.196 159.469 205.053 158.704 203.522 157.326C201.991 155.948 201.226 153.958 201.226 151.662C201.226 150.284 201.532 149.059 201.991 147.834C202.603 146.609 203.216 145.538 204.287 144.466C205.359 143.395 206.431 142.782 207.656 142.17C208.88 141.71 210.258 141.404 211.942 141.404C214.239 141.404 216.076 142.017 217.3 143.241C218.678 144.466 219.291 146.15 219.291 148.294C219.291 148.753 219.291 149.212 219.138 149.824C219.138 150.59 219.138 151.049 218.984 151.662ZM215.157 149.059C215.157 148.6 215.157 148.294 215.157 148.14C215.157 147.069 214.851 146.15 214.239 145.538C213.626 144.925 212.708 144.619 211.636 144.619C210.411 144.619 209.34 145.079 208.268 145.844C207.349 146.609 206.584 147.681 206.278 149.212H215.157V149.059Z" fill="#F27B21"/>
<path d="M240.877 151.356L239.04 159.164H234.141L236.284 150.285C236.284 149.978 236.437 149.672 236.437 149.213C236.437 148.907 236.437 148.601 236.437 148.294C236.437 147.376 236.131 146.763 235.672 146.151C235.213 145.692 234.447 145.386 233.529 145.386C232.151 145.386 230.926 145.845 230.007 146.917C229.089 147.988 228.323 149.366 227.864 151.356L226.027 159.164H221.128L225.108 142.171H229.548L228.783 145.233C229.701 144.161 230.773 143.395 231.845 142.783C233.069 142.171 234.294 142.018 235.519 142.018C237.356 142.018 238.734 142.477 239.805 143.549C240.877 144.62 241.336 145.998 241.336 147.682C241.336 148.294 241.336 148.907 241.183 149.519C241.183 149.978 241.03 150.591 240.877 151.356Z" fill="#F27B21"/>
<path d="M262.922 134.21H267.668L262.004 159.164H257.717L258.329 156.409C257.411 157.48 256.492 158.399 255.268 158.858C254.196 159.47 252.971 159.624 251.593 159.624C249.45 159.624 247.766 159.011 246.541 157.633C245.316 156.409 244.704 154.571 244.704 152.275C244.704 149.213 245.623 146.764 247.307 144.773C249.144 142.783 251.287 141.865 254.043 141.865C255.574 141.865 256.799 142.171 257.717 142.783C258.789 143.396 259.554 144.161 260.167 145.386L262.922 134.21ZM259.248 149.366C259.248 148.142 258.942 147.07 258.176 146.304C257.411 145.539 256.492 145.233 255.268 145.233C253.737 145.233 252.359 145.845 251.287 147.223C250.215 148.601 249.756 150.285 249.756 152.275C249.756 153.347 250.062 154.265 250.828 155.031C251.44 155.796 252.359 156.102 253.43 156.102C254.961 156.102 256.339 155.337 257.564 154.112C258.636 152.887 259.248 151.203 259.248 149.366Z" fill="#F27B21"/>
<path d="M284.968 149.672L283.896 154.724C283.743 155.642 283.437 156.561 283.437 157.173C283.284 157.786 283.131 158.551 283.131 159.011H279.15L279.61 156.408C278.844 157.327 277.926 158.092 276.854 158.551C275.782 159.011 274.557 159.317 273.333 159.317C271.496 159.317 270.118 158.857 268.893 157.939C267.821 157.02 267.209 155.796 267.209 154.418C267.209 152.428 268.128 151.05 269.965 149.978C271.802 148.906 274.404 148.294 277.619 148.294C277.926 148.294 278.385 148.294 278.844 148.294C279.303 148.294 279.916 148.294 280.834 148.447C280.834 148.294 280.834 148.141 280.834 147.988C280.834 147.835 280.834 147.835 280.834 147.682C280.834 146.61 280.528 145.844 279.763 145.385C279.15 144.773 278.079 144.62 276.854 144.62C275.935 144.62 275.017 144.773 274.098 144.926C273.18 145.079 272.261 145.385 271.189 145.844L271.802 142.629C272.72 142.323 273.792 142.017 274.864 141.864C275.782 141.711 276.854 141.711 277.926 141.711C280.375 141.711 282.212 142.17 283.437 143.089C284.662 144.007 285.427 145.385 285.427 147.222C285.427 147.529 285.427 147.835 285.274 148.294C285.121 148.753 285.121 149.213 284.968 149.672ZM280.069 150.897H279.916C279.15 150.897 278.538 150.743 278.232 150.743C276.088 150.743 274.404 151.05 273.333 151.509C272.261 152.121 271.802 152.887 271.802 154.112C271.802 154.877 272.108 155.336 272.567 155.796C273.027 156.255 273.792 156.408 274.711 156.408C276.088 156.408 277.313 155.949 278.385 154.877C279.303 153.958 279.916 152.734 280.069 150.897Z" fill="#F27B21"/>
<path d="M293.541 134.21H298.287L295.838 144.467C296.756 143.549 297.675 142.936 298.593 142.477C299.665 142.018 300.737 141.865 301.808 141.865C303.952 141.865 305.636 142.477 306.86 143.855C308.085 145.08 308.697 146.917 308.697 149.213C308.697 150.744 308.391 152.275 307.779 153.806C307.167 155.184 306.401 156.409 305.329 157.327C304.411 158.093 303.492 158.705 302.574 159.011C301.502 159.47 300.43 159.624 299.206 159.624C297.675 159.624 296.45 159.317 295.378 158.552C294.307 157.94 293.541 157.021 293.082 155.796L292.163 159.164H287.724L293.541 134.21ZM303.952 149.213C303.952 147.988 303.645 146.917 303.033 146.304C302.421 145.692 301.502 145.233 300.277 145.233C298.746 145.233 297.369 145.998 296.297 147.223C295.225 148.601 294.613 150.132 294.613 151.969C294.613 153.194 294.919 154.265 295.685 155.031C296.45 155.796 297.369 156.255 298.593 156.255C300.124 156.255 301.349 155.643 302.421 154.265C303.339 152.734 303.952 151.05 303.952 149.213Z" fill="#F27B21"/>
<path d="M316.964 134.21H321.863L316.045 159.011H311.146L316.964 134.21Z" fill="#F27B21"/>
<path d="M339.929 151.662H326.763V151.815C326.763 151.968 326.763 151.968 326.763 152.274C326.763 153.499 327.222 154.57 328.141 155.183C329.059 155.948 330.284 156.254 331.968 156.254C332.886 156.254 333.805 156.101 334.724 155.948C335.642 155.795 336.408 155.489 337.326 155.183L337.02 158.551C335.948 158.857 335.03 159.163 333.958 159.316C332.886 159.469 331.968 159.469 330.896 159.469C328.141 159.469 325.997 158.704 324.466 157.326C322.935 155.948 322.17 153.958 322.17 151.662C322.17 150.284 322.476 149.059 322.935 147.834C323.395 146.609 324.16 145.538 325.232 144.466C326.303 143.395 327.375 142.782 328.6 142.17C329.825 141.71 331.202 141.404 332.886 141.404C335.183 141.404 337.02 142.017 338.245 143.241C339.623 144.466 340.235 146.15 340.235 148.294C340.235 148.753 340.235 149.212 340.082 149.824C340.235 150.59 340.082 151.049 339.929 151.662ZM336.101 149.059C336.101 148.6 336.101 148.294 336.101 148.14C336.101 147.069 335.795 146.15 335.183 145.538C334.571 144.925 333.652 144.619 332.58 144.619C331.356 144.619 330.131 145.079 329.212 145.844C328.294 146.609 327.528 147.681 327.222 149.212H336.101V149.059Z" fill="#F27B21"/>
<path d="M358.453 146.763C358.453 145.386 358.912 144.314 359.984 143.395C361.056 142.477 362.28 142.018 363.658 142.018C365.036 142.018 366.414 142.477 367.333 143.395C368.404 144.314 368.864 145.539 368.864 146.763C368.864 148.141 368.404 149.213 367.333 150.132C366.261 151.05 365.036 151.509 363.658 151.509C362.127 151.509 360.903 151.05 359.984 150.132C358.912 149.213 358.453 147.988 358.453 146.763Z" fill="#F27B21"/>
<path d="M398.41 136.047H404.534L408.974 159.164H404.075L403.156 153.653H392.133L388.612 159.164H383.254L398.41 136.047ZM400.86 139.415L393.97 150.132H402.544L400.86 139.415Z" fill="#F27B21"/>
<path d="M428.57 134.362L427.651 137.424C427.345 137.271 426.886 137.271 426.58 137.118C426.274 137.118 425.967 136.965 425.661 136.965C424.896 136.965 424.283 137.271 423.671 137.73C423.059 138.19 422.752 138.955 422.446 139.721L421.834 142.017H426.58L425.814 145.232H421.068L417.853 159.01H412.954L416.169 145.232H412.495L413.261 142.017H417.088L417.853 139.108C418.313 137.424 419.078 136.046 420.456 135.128C421.681 134.209 423.365 133.75 425.355 133.75C425.967 133.75 426.58 133.75 427.039 133.903C427.498 134.056 427.958 134.209 428.57 134.362Z" fill="#F27B21"/>
<path d="M442.96 134.362L442.042 137.424C441.736 137.271 441.276 137.271 440.97 137.118C440.664 137.118 440.358 136.965 440.052 136.965C439.286 136.965 438.674 137.271 438.061 137.73C437.449 138.19 437.143 138.955 436.837 139.721L436.224 142.017H440.97L440.205 145.232H435.459L432.244 159.01H427.345L430.56 145.232H426.732L427.498 142.017H431.325L431.938 139.108C432.397 137.424 433.162 136.046 434.54 135.128C435.765 134.209 437.449 133.75 439.439 133.75C440.052 133.75 440.664 133.75 441.123 133.903C441.889 134.056 442.501 134.209 442.96 134.362Z" fill="#F27B21"/>
<path d="M452.3 141.711C454.902 141.711 457.046 142.476 458.577 143.854C460.107 145.232 460.873 147.222 460.873 149.519C460.873 150.897 460.567 152.121 460.107 153.499C459.495 154.724 458.73 155.796 457.658 156.714C456.586 157.633 455.515 158.398 454.137 158.857C452.759 159.317 451.381 159.623 449.697 159.623C446.941 159.623 444.798 159.011 443.267 157.633C441.736 156.255 440.971 154.418 440.971 151.968C440.971 148.906 442.042 146.457 444.033 144.62C446.176 142.63 448.932 141.711 452.3 141.711ZM455.974 149.213C455.974 147.835 455.668 146.763 454.902 145.998C454.137 145.232 453.065 144.773 451.84 144.773C450.309 144.773 448.932 145.538 447.707 146.763C446.482 148.141 445.87 149.672 445.87 151.662C445.87 153.04 446.329 154.265 447.094 155.03C447.86 155.949 448.932 156.255 450.156 156.255C451.84 156.255 453.065 155.642 454.29 154.265C455.515 152.887 455.974 151.203 455.974 149.213Z" fill="#F27B21"/>
<path d="M478.784 142.017L477.713 145.844C477.254 145.691 476.947 145.691 476.488 145.538C476.182 145.538 475.723 145.385 475.416 145.385C473.886 145.385 472.814 145.844 471.895 146.609C470.977 147.528 470.364 148.906 469.905 151.049L468.068 158.857H463.169L466.996 141.864H471.436L470.824 144.772C471.742 143.548 472.661 142.782 473.579 142.17C474.498 141.71 475.57 141.404 476.641 141.404C476.947 141.404 477.254 141.404 477.713 141.557C478.019 141.864 478.325 141.864 478.784 142.017Z" fill="#F27B21"/>
<path d="M496.697 134.21H501.443L495.778 159.164H491.492L492.104 156.409C491.185 157.48 490.267 158.399 489.042 158.858C487.97 159.47 486.746 159.624 485.368 159.624C483.224 159.624 481.54 159.011 480.316 157.633C479.091 156.409 478.479 154.571 478.479 152.275C478.479 149.213 479.397 146.764 481.081 144.773C482.918 142.783 485.062 141.865 487.817 141.865C489.348 141.865 490.573 142.171 491.492 142.783C492.563 143.396 493.329 144.161 493.941 145.386L496.697 134.21ZM493.022 149.366C493.022 148.142 492.716 147.07 491.951 146.304C491.185 145.539 490.267 145.233 489.042 145.233C487.511 145.233 486.133 145.845 485.062 147.223C483.99 148.601 483.531 150.285 483.531 152.275C483.531 153.347 483.837 154.265 484.602 155.031C485.215 155.796 486.133 156.102 487.205 156.102C488.736 156.102 490.114 155.337 491.338 154.112C492.41 152.887 493.022 151.203 493.022 149.366Z" fill="#F27B21"/>
<path d="M518.742 149.672L517.671 154.724C517.518 155.642 517.211 156.561 517.211 157.173C517.058 157.786 516.905 158.551 516.905 159.011H512.925L513.384 156.408C512.619 157.327 511.7 158.092 510.628 158.551C509.557 159.011 508.485 159.317 507.107 159.317C505.27 159.317 503.892 158.857 502.667 157.939C501.596 157.02 500.983 155.796 500.983 154.418C500.983 152.428 501.902 151.05 503.739 149.978C505.576 148.906 508.179 148.294 511.547 148.294C511.853 148.294 512.312 148.294 512.772 148.294C513.231 148.294 513.843 148.294 514.762 148.447C514.762 148.294 514.762 148.141 514.762 147.988C514.762 147.835 514.762 147.835 514.762 147.682C514.762 146.61 514.456 145.844 513.69 145.385C513.078 144.773 512.006 144.62 510.781 144.62C509.863 144.62 508.944 144.773 508.026 144.926C507.107 145.079 506.036 145.385 505.117 145.844L505.729 142.629C506.801 142.323 507.72 142.017 508.791 141.864C509.863 141.711 510.781 141.711 511.853 141.711C514.303 141.711 516.14 142.17 517.364 143.089C518.589 144.007 519.355 145.385 519.355 147.222C519.355 147.529 519.355 147.835 519.202 148.294C518.895 148.753 518.895 149.213 518.742 149.672ZM513.996 150.897H513.843C513.078 150.897 512.465 150.743 512.159 150.743C510.016 150.743 508.332 151.05 507.26 151.509C506.189 152.121 505.729 152.887 505.729 154.112C505.729 154.877 506.036 155.336 506.495 155.796C506.954 156.255 507.72 156.408 508.638 156.408C510.016 156.408 511.241 155.949 512.312 154.877C513.078 153.958 513.69 152.734 513.996 150.897Z" fill="#F27B21"/>
<path d="M527.468 134.21H532.214L529.765 144.467C530.683 143.549 531.602 142.936 532.52 142.477C533.439 142.018 534.664 141.865 535.735 141.865C537.879 141.865 539.563 142.477 540.787 143.855C542.012 145.08 542.624 146.917 542.624 149.213C542.624 150.744 542.318 152.275 541.706 153.806C541.094 155.184 540.328 156.409 539.256 157.327C538.338 158.093 537.419 158.705 536.501 159.011C535.429 159.47 534.357 159.624 533.133 159.624C531.602 159.624 530.377 159.317 529.305 158.552C528.234 157.94 527.468 157.021 527.009 155.796L526.243 159.164H521.804L527.468 134.21ZM537.725 149.213C537.725 147.988 537.419 146.917 536.807 146.304C536.195 145.692 535.276 145.233 534.051 145.233C532.52 145.233 531.142 145.998 530.071 147.223C528.846 148.601 528.387 150.132 528.387 151.969C528.387 153.194 528.693 154.265 529.458 155.031C530.224 155.796 531.142 156.255 532.367 156.255C533.898 156.255 535.123 155.643 536.195 154.265C537.113 152.734 537.725 151.05 537.725 149.213Z" fill="#F27B21"/>
<path d="M550.739 134.21H555.638L549.82 159.011H545.074L550.739 134.21Z" fill="#F27B21"/>
<path d="M573.703 151.662H560.384V151.815C560.384 151.968 560.384 151.968 560.384 152.274C560.384 153.499 560.843 154.57 561.762 155.183C562.68 155.948 563.905 156.254 565.589 156.254C566.508 156.254 567.426 156.101 568.345 155.948C569.263 155.795 570.029 155.489 570.947 155.183L570.641 158.551C569.569 158.857 568.651 159.163 567.579 159.316C566.508 159.469 565.589 159.469 564.517 159.469C561.762 159.469 559.618 158.704 558.087 157.326C556.556 155.948 555.791 153.958 555.791 151.662C555.791 150.284 556.097 149.059 556.556 147.834C557.169 146.609 557.781 145.538 558.853 144.466C559.925 143.395 560.996 142.782 562.221 142.17C563.446 141.71 564.824 141.404 566.508 141.404C568.804 141.404 570.641 142.017 571.866 143.241C573.244 144.466 573.856 146.15 573.856 148.294C573.856 148.753 573.856 149.212 573.703 149.824C574.009 150.59 573.856 151.049 573.703 151.662ZM569.876 149.059C569.876 148.6 569.876 148.294 569.876 148.14C569.876 147.069 569.569 146.15 568.957 145.538C568.345 144.925 567.426 144.619 566.354 144.619C565.13 144.619 563.905 145.079 562.986 145.844C562.068 146.609 561.302 147.681 560.996 149.212H569.876V149.059Z" fill="#F27B21"/>
<defs>
<linearGradient id="paint0_linear_280_98" x1="26.0484" y1="16.2092" x2="61.7087" y2="45.3858" gradientUnits="userSpaceOnUse">
<stop stop-color="#F5893D"/>
<stop offset="1" stop-color="#FABD91"/>
</linearGradient>
<linearGradient id="paint1_linear_280_98" x1="16.6896" y1="0.478014" x2="62.8351" y2="51.7276" gradientUnits="userSpaceOnUse">
<stop stop-color="#F8A871"/>
<stop offset="1" stop-color="white"/>
</linearGradient>
<linearGradient id="paint2_linear_280_98" x1="12.667" y1="3.71949" x2="58.8637" y2="55.0257" gradientUnits="userSpaceOnUse">
<stop stop-color="#F8A871"/>
<stop offset="1" stop-color="white"/>
</linearGradient>
<linearGradient id="paint3_linear_280_98" x1="32.9369" y1="86.8779" x2="32.9369" y2="49.5018" gradientUnits="userSpaceOnUse">
<stop stop-color="#FBB784"/>
<stop offset="1" stop-color="#F37821"/>
</linearGradient>
<linearGradient id="paint4_linear_280_98" x1="346.581" y1="86.8951" x2="346.581" y2="49.5313" gradientUnits="userSpaceOnUse">
<stop stop-color="#FBB784"/>
<stop offset="1" stop-color="#F37821"/>
</linearGradient>
<linearGradient id="paint5_linear_280_98" x1="558.064" y1="86.8962" x2="558.064" y2="49.5054" gradientUnits="userSpaceOnUse">
<stop stop-color="#FBB784"/>
<stop offset="1" stop-color="#F37821"/>
</linearGradient>
<linearGradient id="paint6_linear_280_98" x1="495.433" y1="87.4968" x2="495.433" y2="50.1059" gradientUnits="userSpaceOnUse">
<stop stop-color="#FBB784"/>
<stop offset="1" stop-color="#F37821"/>
</linearGradient>
<linearGradient id="paint7_linear_280_98" x1="416.375" y1="86.8962" x2="416.375" y2="49.5054" gradientUnits="userSpaceOnUse">
<stop stop-color="#FBB784"/>
<stop offset="1" stop-color="#F37821"/>
</linearGradient>
<linearGradient id="paint8_linear_280_98" x1="280.268" y1="86.8962" x2="280.268" y2="49.5054" gradientUnits="userSpaceOnUse">
<stop stop-color="#FBB784"/>
<stop offset="1" stop-color="#F37821"/>
</linearGradient>
<linearGradient id="paint9_linear_280_98" x1="220.934" y1="86.8962" x2="220.934" y2="49.5054" gradientUnits="userSpaceOnUse">
<stop stop-color="#FBB784"/>
<stop offset="1" stop-color="#F37821"/>
</linearGradient>
<linearGradient id="paint10_linear_280_98" x1="164.111" y1="86.8962" x2="164.111" y2="49.5054" gradientUnits="userSpaceOnUse">
<stop stop-color="#FBB784"/>
<stop offset="1" stop-color="#F37821"/>
</linearGradient>
<linearGradient id="paint11_linear_280_98" x1="93.1266" y1="86.8962" x2="93.1266" y2="49.5054" gradientUnits="userSpaceOnUse">
<stop stop-color="#FBB784"/>
<stop offset="1" stop-color="#F37821"/>
</linearGradient>
</defs>
</svg>
