<svg width="588" height="175" viewBox="0 0 588 175" fill="none" xmlns="http://www.w3.org/2000/svg">
<circle cx="39.4142" cy="34.882" r="25.9347" fill="url(#paint0_linear_303_82)"/>
<mask id="mask0_303_82" style="mask-type:luminance" maskUnits="userSpaceOnUse" x="15" y="32" width="49" height="5">
<path d="M40.1098 36.2974L39.9567 36.1443C39.9567 36.1443 39.9567 36.1443 40.1098 36.2974ZM39.9567 35.9912C39.8036 35.9912 39.9567 35.9912 39.9567 35.9912C39.8036 35.9912 39.9567 35.9912 39.9567 35.9912ZM39.8036 35.9912C39.8036 35.8381 39.8036 35.8381 39.8036 35.9912C39.8036 35.8381 39.8036 35.8381 39.8036 35.9912ZM39.8036 35.8381C39.6505 35.8381 39.8036 35.8381 39.8036 35.8381C39.6505 35.8381 39.8036 35.8381 39.8036 35.8381ZM39.6505 35.5319C39.4974 35.5319 39.6505 35.5319 39.6505 35.5319C39.4974 35.5319 39.6505 35.5319 39.6505 35.5319ZM39.3443 35.3788C39.1912 35.2257 39.3443 35.3788 39.3443 35.3788C39.1912 35.2257 39.3443 35.3788 39.3443 35.3788ZM39.1912 35.0726C39.0382 35.0726 39.0382 35.0726 39.1912 35.0726C39.0382 35.0726 39.0382 35.0726 39.1912 35.0726ZM39.0382 35.0726C38.8851 35.0726 39.0382 35.0726 39.0382 35.0726C38.8851 35.0726 39.0382 35.0726 39.0382 35.0726ZM38.732 34.9195C38.732 34.7664 38.732 34.9195 38.732 34.9195C38.732 34.7664 38.732 34.9195 38.732 34.9195ZM38.732 34.7664C38.5789 34.7664 38.732 34.7664 38.732 34.7664C38.5789 34.7664 38.732 34.7664 38.732 34.7664ZM38.5789 34.7664C38.4258 34.6133 38.2727 34.6133 38.1196 34.4602C38.2727 34.4602 38.4258 34.6133 38.5789 34.7664ZM43.3248 33.6948C43.3248 33.6948 43.4779 33.6948 43.3248 33.6948C43.3248 33.6948 43.4779 33.6948 43.3248 33.6948ZM26.7906 32.9293C23.1164 32.7762 19.289 32.7762 15.3086 32.1638C19.1359 32.7762 23.1164 32.7762 26.7906 32.9293ZM54.3475 32.0107C50.0609 32.0107 46.3867 32.3169 43.4779 33.5417C46.3867 32.3169 50.214 32.0107 54.3475 32.0107ZM54.3475 32.0107C55.5723 32.0107 56.797 32.0107 58.1749 32.0107C59.3996 32.0107 60.7775 32.0107 62.1553 32.0107H63.5332H62.3084C60.9306 32.0107 59.7058 32.0107 58.328 32.0107C56.9501 32.1638 55.7254 32.0107 54.3475 32.0107Z" fill="white"/>
</mask>
<g mask="url(#mask0_303_82)">
<path d="M41.9467 8.12793L65.5232 34.4601L36.8946 60.1799L13.165 34.0008L41.9467 8.12793Z" fill="url(#paint1_linear_303_82)"/>
</g>
<mask id="mask1_303_82" style="mask-type:luminance" maskUnits="userSpaceOnUse" x="36" y="39" width="7" height="6">
<path d="M37.2012 44.5651L37.3543 44.412C37.2012 44.412 37.2012 44.5651 37.2012 44.5651ZM37.2012 44.5651C37.2012 44.412 37.2012 44.412 37.2012 44.2589C37.0481 44.412 37.2012 44.5651 37.2012 44.5651ZM37.3543 44.412L37.5074 44.2589C37.3543 44.2589 37.3543 44.2589 37.3543 44.412ZM37.5074 44.1058L37.6605 43.9527C37.5074 44.1058 37.5074 44.1058 37.5074 44.1058ZM37.0481 44.1058C37.0481 43.9527 37.0481 43.9527 37.0481 44.1058C37.0481 43.9527 37.0481 43.9527 37.0481 44.1058ZM37.6605 43.9527L37.8136 43.7996C37.6605 43.7996 37.6605 43.9527 37.6605 43.9527ZM36.8951 43.6465C36.8951 43.4934 36.8951 43.4934 36.8951 43.6465C36.8951 43.4934 36.8951 43.4934 36.8951 43.6465ZM37.9667 43.6465C37.9667 43.4934 37.9667 43.4934 37.9667 43.6465C37.9667 43.4934 37.9667 43.4934 37.9667 43.6465ZM38.1198 43.4934L38.2729 43.3403C38.1198 43.3403 38.1198 43.3403 38.1198 43.4934ZM36.8951 43.1872C36.8951 43.0341 36.8951 43.1872 36.8951 43.1872C36.8951 43.0341 36.8951 43.1872 36.8951 43.1872ZM36.5889 42.4217C36.5889 42.2686 36.5889 42.4217 36.5889 42.4217C36.5889 42.2686 36.5889 42.4217 36.5889 42.4217ZM38.2729 43.1872C39.1915 42.1156 40.2631 41.197 41.4879 40.4315C40.2631 41.197 39.1915 42.1156 38.2729 43.1872ZM41.4879 40.5846C41.4879 40.5846 41.641 40.5846 41.641 40.4315C41.641 40.4315 41.4879 40.4315 41.4879 40.5846ZM41.641 40.4315C41.641 40.2784 41.7941 40.2784 41.641 40.4315C41.641 40.2784 41.7941 40.2784 41.641 40.4315ZM41.7941 40.2784C41.9472 40.1253 41.9472 40.2784 41.7941 40.2784C41.9472 40.1253 41.9472 40.2784 41.7941 40.2784ZM42.2533 39.9722C42.2533 39.9722 42.4064 39.9722 42.2533 39.9722C42.2533 39.9722 42.4064 39.9722 42.2533 39.9722ZM42.4064 39.9722C42.5595 39.8191 42.5595 39.8191 42.4064 39.9722C42.5595 39.8191 42.5595 39.8191 42.4064 39.9722Z" fill="white"/>
</mask>
<g mask="url(#mask1_303_82)">
<path d="M39.957 36.4512L45.3153 42.4218L39.3446 47.7801L33.9863 41.9626L39.957 36.4512Z" fill="url(#paint2_linear_303_82)"/>
</g>
<path d="M81.9045 28.0305C81.5983 27.7243 81.139 27.7243 80.8328 27.8774C78.0771 29.4083 74.8622 30.3269 71.8003 30.7862C69.9631 31.0923 67.9729 31.2454 66.1358 31.3985C65.2172 31.3985 64.2987 31.3985 63.5332 31.3985C61.6961 31.3985 60.012 31.3985 58.328 31.3985C57.1033 31.3985 55.7254 31.3985 54.5007 31.3985C48.9893 31.3985 43.4779 31.7047 40.2629 35.0728C37.6603 32.4702 32.4551 32.3171 26.6376 32.164C23.2695 32.164 19.4421 32.0109 15.7679 31.3985C15.1555 31.3985 14.6962 31.2454 14.0839 31.0923C10.4096 30.3269 7.04154 29.1021 4.13275 26.6526C3.36728 26.0402 2.75491 25.4279 2.14253 24.6624C1.53015 24.2031 1.07087 24.2031 0.764685 24.3562C0.458497 24.6624 0.305403 25.1217 0.458497 25.4279C4.13275 32.3171 9.18485 35.2259 14.237 36.6037C17.7581 37.5223 21.2793 37.6754 24.4942 37.8285C31.8428 38.1347 35.6701 38.747 36.2825 44.5646C36.2825 44.8708 36.5887 45.177 37.0479 45.3301H37.201C37.5072 45.3301 37.8134 45.177 37.9665 45.0239C42.5593 38.5939 50.5202 37.8285 59.0935 37.2161C61.3899 37.063 63.6863 36.9099 65.9827 36.6037C72.1065 35.8383 77.924 34.0011 82.2107 29.1021C82.0576 28.7959 82.0576 28.3367 81.9045 28.0305ZM67.8198 34.4604C64.911 35.0728 61.8492 35.2259 58.7873 35.5321C50.9795 36.1444 42.8655 36.7568 37.6603 42.4213C36.1294 36.7568 30.4649 36.4506 24.6473 36.1444C20.3607 35.8383 15.6148 35.6852 11.4813 33.6949C9.49104 32.7764 7.65391 31.5516 5.96988 29.8676C6.88844 30.48 7.9601 30.9392 8.87866 31.2454C14.5431 33.3888 20.9731 33.5418 26.4845 33.5418C32.4551 33.6949 37.6603 33.6949 39.3444 36.4506C39.4974 36.7568 39.8036 36.9099 40.1098 36.9099C40.416 36.9099 40.7222 36.7568 40.8753 36.6037C43.1717 33.3888 47.7645 32.7764 54.5007 32.7764C55.7254 32.7764 56.9502 32.7764 58.328 32.7764C62.0023 32.7764 65.9827 32.9295 69.8101 32.4702C72.1065 32.164 74.4029 31.8578 76.6993 31.2454C73.7905 33.0826 70.8817 34.0011 67.8198 34.4604Z" fill="#1226AA"/>
<path d="M39.9564 36.297C35.5167 28.7953 12.5526 38.2872 1.22363 25.1211C12.2464 45.7888 35.5167 29.867 37.0476 44.7171C46.6925 31.2449 70.1159 41.8083 81.1387 28.6423C66.9009 36.45 46.2332 27.7237 39.9564 36.297Z" fill="white"/>
<path d="M7.95996 125.705H41.3344L53.1227 63.3956C53.1227 63.3956 37.0478 71.9689 20.5137 60.1807L7.95996 125.705Z" fill="#F37821"/>
<mask id="mask2_303_82" style="mask-type:luminance" maskUnits="userSpaceOnUse" x="13" y="60" width="41" height="36">
<path d="M13.625 95.8508H46.9995L53.1232 63.3949C52.664 63.7011 47.1526 66.4568 39.4979 66.4568C33.9865 66.4568 27.2504 65.0789 20.5142 60.333L13.625 95.8508Z" fill="white"/>
</mask>
<g mask="url(#mask2_303_82)">
<path d="M53.1232 60.1807H13.625V95.8515H53.1232V60.1807Z" fill="url(#paint3_linear_303_82)"/>
</g>
<path d="M122.015 125.857H120.637H96.6014H95.6828L95.2235 125.092L78.5363 95.2387L73.0249 124.48L72.7187 125.704H71.3409H49.4485H47.6113L47.9175 123.867L59.0934 64.6199L59.3996 63.3951H60.7774H84.9662H85.8848L86.3441 64.1606L103.338 95.5448L109.155 64.6199L109.461 63.3951H110.839H132.272H134.109L133.803 65.2323L122.627 124.48L122.015 125.857ZM168.709 125.857H167.331H142.53H140.539L140.846 124.02L148.347 84.8283H135.793H133.956L134.262 82.9911L137.631 64.9261L137.937 63.7013H139.315H193.204H195.041L194.735 65.5384L191.367 83.6035L191.06 84.8283H189.682H176.516L168.862 124.633L168.709 125.857ZM237.754 125.857H236.376H189.376H187.539L187.845 124.02L199.021 64.773L199.174 63.5482H200.552H247.552H249.389L249.083 65.3853L246.174 80.3885L245.868 81.6133H244.49H223.669L222.904 86.053H241.428H243.265L242.959 87.8902L240.203 102.128L239.897 103.353H238.519H219.536L218.617 107.945H238.826H240.816L240.51 109.783L237.601 124.786L237.754 125.857ZM275.874 90.4927H276.793C282.611 90.4927 285.06 89.268 285.672 86.053C286.132 83.7566 285.213 82.8381 284.295 82.3788C282.917 81.6133 280.773 81.6133 278.783 81.6133H277.405L275.874 90.4927ZM312.617 125.857H309.708H282.151H281.08L280.62 124.939L272.659 107.945L269.444 124.633L269.138 125.857H267.76H243.572H241.734L242.041 124.02L253.216 64.773L253.523 63.5482H254.9H286.132C297.461 63.5482 305.728 66.3039 310.167 71.356C313.382 75.0303 314.301 79.7762 313.229 85.5937C311.545 94.3201 307.106 98.7598 296.542 101.669L310.933 123.408L312.617 125.857ZM410.597 102.281H420.242L418.252 85.8999L410.597 102.281ZM452.698 125.857H450.708H424.529H423.151L422.998 124.48L422.232 118.203H403.402L400.34 124.939L399.88 125.857H398.809H372.783H370.027L371.405 123.561L407.229 64.3137L407.688 63.5482H408.607H436.776H438.001L438.307 64.773L452.392 124.02L452.698 125.857ZM489.747 90.6458H491.431C497.707 90.6458 500.769 89.1149 501.382 85.7468C501.688 83.9097 501.076 82.8381 499.392 82.2257C497.707 81.6133 495.411 81.6133 493.268 81.6133H491.431L489.747 90.6458ZM483.01 125.857H481.786H458.056H456.219L456.525 124.02L467.701 64.773L467.854 63.5482H469.232H501.994C512.558 63.5482 520.365 66.3039 524.652 71.356C528.02 75.3365 529.092 80.5416 528.02 86.8185C525.571 99.6784 514.548 107.486 499.392 107.486H486.532L483.317 124.48L483.01 125.857ZM574.867 125.857H573.489H526.489H524.652L524.958 124.02L536.134 64.773L536.287 63.5482H537.665H584.665H586.502L586.196 65.3853L583.287 80.3885L582.981 81.6133H581.603H560.782L560.017 86.053H578.541H580.378L580.072 87.8902L577.316 102.128L577.01 103.353H575.632H556.649L555.73 107.945H575.938H577.776L577.469 109.783L574.561 124.786L574.867 125.857ZM347.522 126.776C336.346 126.776 326.855 122.949 320.884 116.059C315.985 110.395 314.148 102.893 315.526 95.0856C319.047 76.8674 338.643 62.4766 360.382 62.4766C366.047 62.4766 371.864 63.242 377.223 64.773L378.6 65.2323L378.294 66.6101L374.314 87.4309L373.854 90.0335L371.711 88.1963C368.955 85.7468 365.281 83.2973 359.617 83.2973C351.962 83.2973 344.92 88.3494 343.695 94.6263C343.236 97.2289 343.848 99.6784 345.532 101.516C347.675 104.118 351.503 105.496 355.483 105.496C360.382 105.496 364.363 104.271 368.802 101.516L371.864 99.5253L371.252 103.046L367.425 122.949L367.271 123.867L366.353 124.173C361.76 126.011 352.421 126.776 347.522 126.776Z" fill="#F37821"/>
<mask id="mask3_303_82" style="mask-type:luminance" maskUnits="userSpaceOnUse" x="315" y="62" width="64" height="34">
<path d="M315.526 95.0848C315.526 95.391 315.373 95.5441 315.373 95.8503H343.542C343.542 95.5441 343.542 95.2379 343.695 94.9317C344.92 88.6549 351.962 83.6028 359.617 83.6028C365.129 83.6028 368.803 86.0523 371.712 88.5018L373.855 90.1858L374.314 87.5832L378.295 66.7624L378.601 65.3846L377.223 64.9253C372.018 63.3944 366.2 62.6289 360.383 62.6289C338.796 62.6289 319.047 76.8666 315.526 95.0848Z" fill="white"/>
</mask>
<g mask="url(#mask3_303_82)">
<path d="M378.448 62.6289H315.373V95.8503H378.448V62.6289Z" fill="url(#paint4_linear_303_82)"/>
</g>
<mask id="mask4_303_82" style="mask-type:luminance" maskUnits="userSpaceOnUse" x="530" y="63" width="57" height="33">
<path d="M584.818 63.5479H537.665H536.44L536.134 64.7726L530.316 95.8507H578.847L580.378 87.7367L580.684 85.8996H578.847H560.323L561.088 81.6129H581.909H583.287L583.44 80.2351L586.349 65.385L586.655 63.5479H584.818Z" fill="white"/>
</mask>
<g mask="url(#mask4_303_82)">
<path d="M586.655 63.5479H530.316V95.8507H586.655V63.5479Z" fill="url(#paint5_linear_303_82)"/>
</g>
<mask id="mask5_303_82" style="mask-type:luminance" maskUnits="userSpaceOnUse" x="461" y="62" width="65" height="34">
<path d="M491.431 81.6131H493.268C495.411 81.6131 497.708 81.6131 499.392 82.2254C500.004 82.5316 500.617 82.9909 500.77 83.4502C500.923 83.9095 501.076 84.3688 500.923 84.828C500.923 84.9811 500.923 85.1342 500.77 85.2873C500.157 88.8085 497.095 90.1863 490.819 90.1863H489.134L491.431 81.6131ZM469.232 63.548H467.854L467.701 64.7727L461.884 95.8508H524.499C524.499 95.8508 524.499 95.8508 524.652 95.6977C524.652 95.6977 524.652 95.6977 524.652 95.5446C524.652 95.5446 524.652 95.5446 524.652 95.3915V95.2384C524.652 95.2384 524.652 95.2384 524.652 95.0853V94.9322V94.7791V94.6261V94.473V94.3199C524.652 94.3199 524.652 94.3199 524.652 94.1668V94.0137C524.652 94.0137 524.652 94.0137 524.652 93.8606V93.7075V93.5544C524.652 93.5544 524.652 93.5544 524.652 93.4013V93.2482C524.652 93.2482 524.652 93.2482 524.652 93.0951V92.942C524.652 92.942 524.652 92.942 524.652 92.7889V92.6358V92.4827V92.3296C524.652 92.3296 524.652 92.3297 524.652 92.1766C524.652 92.1766 524.652 92.1765 524.652 92.0235C524.652 92.0235 524.652 92.0235 524.652 91.8704C524.652 91.8704 524.652 91.8704 524.652 91.7173V91.5642V91.4111C524.652 91.4111 524.652 91.4111 524.652 91.258C524.652 91.258 524.652 91.258 524.652 91.1049C524.652 91.1049 524.652 91.1049 524.652 90.9518C524.652 90.9518 524.652 90.9518 524.652 90.7987V90.6456V90.4925C524.652 90.4925 524.652 90.4925 524.652 90.3394C524.652 90.3394 524.652 90.3394 524.652 90.1863V90.0332C524.652 90.0332 524.652 90.0332 524.652 89.8801C524.652 89.8801 524.652 89.8801 524.652 89.727V89.574C524.652 89.4209 524.805 89.2678 524.805 89.1147V88.9616V88.8085V88.6554V88.5023C524.958 87.7368 525.265 86.9714 525.418 86.2059C525.418 86.0528 525.418 86.0528 525.418 85.8997C525.418 85.8997 525.418 85.8997 525.418 85.7466C525.418 85.7466 525.418 85.7466 525.418 85.5935V85.4404C525.724 83.9095 525.877 82.5316 525.877 81.1538C525.877 81.1538 525.877 81.1538 525.877 81.0007C525.877 76.8672 524.652 73.1929 522.203 70.2841C522.203 70.2841 522.203 70.131 522.05 70.131C517.763 65.0789 509.802 62.3232 499.392 62.3232H469.232V63.548Z" fill="white"/>
</mask>
<g mask="url(#mask5_303_82)">
<path d="M529.204 64.1484H462.455V96.4513H529.204V64.1484Z" fill="url(#paint6_linear_303_82)"/>
</g>
<mask id="mask6_303_82" style="mask-type:luminance" maskUnits="userSpaceOnUse" x="388" y="63" width="58" height="33">
<path d="M436.623 63.5479H408.453H407.535L407.075 64.3133L388.092 95.8507H413.658L418.251 85.8996L419.476 95.8507H445.502L438.154 64.7726L437.847 63.5479H436.623Z" fill="white"/>
</mask>
<g mask="url(#mask6_303_82)">
<path d="M445.655 63.5479H388.092V95.8507H445.655V63.5479Z" fill="url(#paint7_linear_303_82)"/>
</g>
<mask id="mask7_303_82" style="mask-type:luminance" maskUnits="userSpaceOnUse" x="247" y="63" width="66" height="33">
<path d="M277.558 81.6129H278.936C280.926 81.6129 283.07 81.766 284.447 82.3784C285.213 82.8377 286.131 83.6032 285.672 85.8996C285.06 89.1145 282.61 90.3393 276.793 90.3393H275.874L277.558 81.6129ZM255.053 63.5479H253.676L253.369 64.7726L247.552 95.8507H308.177C309.861 94.1666 311.086 92.3295 312.004 90.0331C312.004 90.0331 312.004 90.0331 312.004 89.88C312.004 89.88 312.004 89.88 312.004 89.7269C312.004 89.7269 312.004 89.7269 312.004 89.5738C312.004 89.5738 312.004 89.5738 312.004 89.4207C312.004 89.4207 312.004 89.4207 312.004 89.2676C312.004 89.2676 312.004 89.2676 312.004 89.1145C312.004 89.1145 312.004 89.1145 312.004 88.9614C312.004 88.9614 312.004 88.9614 312.004 88.8083C312.004 88.8083 312.004 88.8084 312.004 88.6553C312.004 88.6553 312.004 88.6553 312.004 88.5022C312.004 88.5022 312.004 88.5022 312.004 88.3491C312.004 88.3491 312.004 88.3491 312.004 88.196C312.004 88.196 312.004 88.196 312.004 88.0429C312.004 88.0429 312.004 88.0429 312.004 87.8898C312.004 87.8898 312.004 87.8898 312.004 87.7367C312.004 87.7367 312.004 87.7367 312.004 87.5836C312.004 87.5836 312.004 87.5836 312.004 87.4305C312.004 87.4305 312.004 87.4305 312.004 87.2774C312.004 87.2774 312.004 87.2774 312.004 87.1243C312.004 87.1243 312.004 87.1243 312.004 86.9712C312.004 86.9712 312.004 86.9712 312.004 86.8181C312.004 86.8181 312.004 86.8181 312.004 86.665C312.004 86.665 312.004 86.665 312.004 86.5119C312.004 86.5119 312.004 86.5119 312.004 86.3588C312.004 86.3588 312.004 86.3589 312.004 86.2058C312.004 86.2058 312.004 86.2058 312.004 86.0527C312.004 86.0527 312.004 86.0527 312.004 85.8996C312.004 85.8996 312.004 85.8996 312.004 85.7465V85.5934V85.4403C312.617 82.5315 312.617 79.9289 312.157 77.6325C312.157 77.4794 312.157 77.4794 312.157 77.3263C312.157 77.3263 312.157 77.3263 312.157 77.1732V77.0201C312.157 77.0201 312.157 77.0201 312.157 76.867V76.7139C312.157 76.7139 312.157 76.7139 312.157 76.5608C312.157 76.5608 312.157 76.5608 312.157 76.4077C312.157 76.4077 312.157 76.4077 312.157 76.2547C312.157 76.2547 312.157 76.2546 312.157 76.1016C312.157 76.1016 312.157 76.1016 312.157 75.9485C312.157 75.9485 312.157 75.9485 312.157 75.7954C312.157 75.7954 312.157 75.6423 312.004 75.6423V75.4892C312.004 75.4892 312.004 75.4892 312.004 75.3361V75.183C312.004 75.183 312.004 75.0299 311.851 75.0299C311.851 74.8768 311.851 74.8768 311.698 74.8768C311.698 74.8768 311.698 74.7237 311.545 74.7237V74.5706V74.4175C311.545 74.2644 311.392 74.2644 311.392 74.2644C311.392 74.1113 311.392 74.1113 311.239 74.1113V73.9582C311.239 73.9582 311.239 73.9582 311.239 73.8051C311.239 73.8051 311.239 73.8051 311.239 73.6521C311.239 73.6521 311.239 73.6521 311.239 73.499C306.952 68.4469 298.532 65.6912 287.356 65.6912H255.053V63.5479Z" fill="white"/>
</mask>
<g mask="url(#mask7_303_82)">
<path d="M313.841 63.5479H247.552V95.8507H313.841V63.5479Z" fill="url(#paint8_linear_303_82)"/>
</g>
<mask id="mask8_303_82" style="mask-type:luminance" maskUnits="userSpaceOnUse" x="193" y="63" width="57" height="33">
<path d="M247.706 63.5479H200.553H199.328L199.022 64.7726L193.204 95.8507H241.735L243.266 87.7367L243.572 85.8996H241.735H223.211L223.976 81.6129H244.797H246.175L246.328 80.2351L249.236 65.385L249.543 63.5479H247.706Z" fill="white"/>
</mask>
<g mask="url(#mask8_303_82)">
<path d="M249.543 63.5479H193.204V95.8507H249.543V63.5479Z" fill="url(#paint9_linear_303_82)"/>
</g>
<mask id="mask9_303_82" style="mask-type:luminance" maskUnits="userSpaceOnUse" x="133" y="63" width="63" height="33">
<path d="M193.203 63.5479H139.314H137.936L137.783 64.7726L134.262 82.8377L133.956 84.6748H135.793H148.653L146.51 95.8507H174.526L176.516 84.6748H189.835H191.06L191.366 83.4501L194.734 65.385L195.041 63.5479H193.203Z" fill="white"/>
</mask>
<g mask="url(#mask9_303_82)">
<path d="M195.041 63.5479H133.956V95.8507H195.041V63.5479Z" fill="url(#paint10_linear_303_82)"/>
</g>
<mask id="mask10_303_82" style="mask-type:luminance" maskUnits="userSpaceOnUse" x="53" y="63" width="81" height="33">
<path d="M131.966 63.5479H110.533H109.308L109.002 64.7726L103.184 95.8507L86.1906 64.3133L85.8844 63.5479H84.8127H60.6239H59.3991L59.093 64.7726L53.2754 95.8507H78.3828L78.5359 95.2383L78.8421 95.8507H127.679L133.497 65.385L133.803 63.5479H131.966Z" fill="white"/>
</mask>
<g mask="url(#mask10_303_82)">
<path d="M133.956 63.5479H53.2754V95.8507H133.956V63.5479Z" fill="url(#paint11_linear_303_82)"/>
</g>
<path d="M30.924 145.606L29.6992 149.127C28.7807 148.668 27.8621 148.362 26.9435 148.209C26.025 148.056 25.1064 147.902 24.0348 147.902C22.6569 147.902 21.5853 148.209 20.6667 148.668C19.9012 149.127 19.4419 149.74 19.4419 150.658C19.4419 151.117 19.595 151.73 20.0543 152.189C20.3605 152.648 20.9729 153.108 21.7384 153.567L22.3507 153.873C24.8002 155.251 26.3312 156.323 26.9435 156.935C27.4028 157.547 27.8621 158.16 28.1683 158.772C28.4745 159.385 28.6276 160.15 28.6276 160.762C28.6276 163.059 27.5559 164.896 25.7188 166.274C23.7286 167.652 20.9729 168.417 17.6048 168.417C16.3801 168.417 15.1553 168.264 13.9306 168.111C12.7058 167.958 11.6342 167.652 10.5625 167.192L11.7873 163.518C12.7058 163.977 13.7775 164.437 14.8491 164.59C15.9208 164.896 16.9924 165.049 18.0641 165.049C19.595 165.049 20.9729 164.743 21.8915 164.13C22.81 163.518 23.2693 162.753 23.2693 161.834C23.2693 160.609 21.8915 159.231 19.2889 157.7C18.6765 157.394 18.2172 157.088 17.911 156.935C16.8394 156.323 15.9208 155.404 15.3084 154.486C14.696 153.567 14.3898 152.495 14.3898 151.577C14.3898 149.433 15.3084 147.749 17.1455 146.525C18.9827 145.3 21.4322 144.688 24.6471 144.688C25.8719 144.688 26.9436 144.841 28.0152 144.994C28.7807 144.994 29.8523 145.147 30.924 145.606Z" fill="#F27B21"/>
<path d="M49.1425 158.619L47.9177 163.671C47.7646 164.59 47.4584 165.508 47.4584 166.121C47.3053 166.733 47.1522 167.499 47.1522 167.958H43.1718L43.6311 165.355C42.8656 166.274 41.947 167.039 40.8754 167.499C39.8037 167.958 38.7321 168.264 37.3542 168.264C35.5171 168.264 34.1393 167.805 32.9145 166.886C31.8428 165.968 31.2305 164.743 31.2305 163.365C31.2305 161.375 32.149 159.997 33.9862 158.925C35.8233 157.854 38.4259 157.241 41.6409 157.241C41.947 157.241 42.4063 157.241 42.8656 157.241C43.3249 157.241 44.0904 157.241 44.8558 157.394C44.8558 157.241 44.8558 157.088 44.8558 156.935C44.8558 156.782 44.8558 156.782 44.8558 156.629C44.8558 155.557 44.5496 154.792 43.7842 154.332C43.1718 153.72 42.1001 153.567 40.8754 153.567C39.9568 153.567 39.0383 153.72 38.1197 153.873C37.2011 154.026 36.1295 154.332 35.2109 154.792L35.8233 151.577C36.7418 151.271 37.8135 150.964 38.8852 150.811C39.8037 150.658 40.8754 150.658 41.947 150.658C44.3965 150.658 46.2337 151.117 47.4584 152.036C48.6832 152.955 49.4486 154.332 49.4486 156.17C49.4486 156.476 49.4486 156.782 49.4486 157.241C49.2955 157.701 49.2956 158.16 49.1425 158.619ZM44.3965 159.844H44.2435C43.478 159.844 42.8656 159.691 42.5594 159.691C40.4161 159.691 38.7321 159.997 37.6604 160.456C36.5888 161.069 35.9764 161.834 35.9764 163.059C35.9764 163.824 36.2826 164.284 36.7418 164.743C37.2011 165.202 37.9666 165.355 38.8852 165.355C40.263 165.355 41.4878 164.896 42.5594 163.824C43.478 162.906 44.0904 161.681 44.3965 159.844Z" fill="#F27B21"/>
<path d="M69.0444 143.31L68.1258 146.372C67.8196 146.218 67.3603 146.218 67.0541 146.065C66.748 146.065 66.4418 145.912 66.1356 145.912C65.3701 145.912 64.7577 146.218 64.1454 146.678C63.533 147.137 63.2268 147.902 62.9206 148.668L62.3082 150.964H67.0541L66.2887 154.179H61.5428L58.3278 167.958H53.4288L56.6438 154.179H52.8164L53.5819 150.964H57.4092L58.1747 148.056C58.634 146.372 59.3994 144.994 60.7773 144.075C62.002 143.157 63.6861 142.697 65.6763 142.697C66.2887 142.697 66.748 142.697 67.3603 142.85C67.9727 143.003 68.5851 143.157 69.0444 143.31Z" fill="#F27B21"/>
<path d="M84.8134 160.609H71.4942V160.762C71.4942 160.915 71.4942 160.915 71.4942 161.221C71.4942 162.446 71.9535 163.518 72.872 164.13C73.7906 164.895 75.0153 165.202 76.6994 165.202C77.6179 165.202 78.5365 165.049 79.4551 164.895C80.3736 164.742 81.1391 164.436 82.0577 164.13L81.7515 167.498C80.6798 167.804 79.7613 168.11 78.6896 168.264C77.6179 168.417 76.6994 168.417 75.6277 168.417C72.872 168.417 70.7287 167.651 69.1978 166.273C67.6668 164.895 66.9014 162.905 66.9014 160.609C66.9014 159.231 67.2076 158.006 67.6668 156.782C68.2792 155.557 68.8916 154.485 69.9632 153.413C71.0349 152.342 72.1066 151.729 73.3313 151.117C74.5561 150.658 75.9339 150.352 77.6179 150.352C79.9144 150.352 81.7515 150.964 82.9762 152.189C84.3541 153.413 84.9664 155.097 84.9664 157.241C84.9664 157.7 84.9665 158.159 84.8134 158.772C85.1195 159.537 84.9665 159.996 84.8134 160.609ZM80.986 158.006C80.986 157.547 80.986 157.241 80.986 157.088C80.986 156.016 80.6798 155.097 80.0674 154.485C79.4551 153.873 78.5365 153.567 77.4649 153.567C76.2401 153.567 75.0153 154.026 74.0968 154.791C73.1782 155.557 72.4128 156.628 72.1066 158.159H80.986V158.006Z" fill="#F27B21"/>
<path d="M103.338 155.711C103.338 154.333 103.797 153.261 104.869 152.343C105.94 151.424 107.165 150.965 108.543 150.965C110.074 150.965 111.299 151.424 112.217 152.343C113.289 153.261 113.748 154.486 113.748 155.711C113.748 157.089 113.289 158.16 112.217 159.079C111.146 159.997 109.921 160.457 108.543 160.457C107.012 160.457 105.787 159.997 104.869 159.079C103.797 158.16 103.338 156.936 103.338 155.711Z" fill="#F27B21"/>
<path d="M135.641 144.994H142.683C146.816 144.994 149.878 145.913 152.022 147.597C154.165 149.281 155.237 151.73 155.237 155.098C155.237 157.395 154.624 159.538 153.552 161.528C152.481 163.518 150.95 165.049 149.113 165.968C147.735 166.733 146.357 167.193 144.673 167.652C143.142 167.958 141.152 168.111 139.009 168.111H130.282L135.641 144.994ZM139.927 148.362L136.253 164.437H139.162C140.693 164.437 142.07 164.284 143.295 163.978C144.367 163.672 145.439 163.212 146.204 162.6C147.276 161.681 148.194 160.61 148.96 159.232C149.725 157.701 150.031 156.323 150.031 154.792C150.031 152.649 149.419 151.118 148.194 150.046C146.969 148.975 145.132 148.362 142.836 148.362H139.927Z" fill="#F27B21"/>
<path d="M175.292 160.609H161.973V160.762C161.973 160.915 161.973 160.915 161.973 161.221C161.973 162.446 162.432 163.518 163.351 164.13C164.269 164.895 165.494 165.202 167.178 165.202C168.096 165.202 169.015 165.049 169.934 164.895C170.852 164.742 171.618 164.436 172.536 164.13L172.23 167.498C171.158 167.804 170.24 168.11 169.168 168.264C168.096 168.417 167.178 168.417 166.106 168.417C163.351 168.417 161.207 167.651 159.676 166.273C158.145 164.895 157.38 162.905 157.38 160.609C157.38 159.231 157.686 158.006 158.145 156.782C158.605 155.557 159.37 154.485 160.442 153.413C161.513 152.342 162.585 151.729 163.81 151.117C165.035 150.658 166.412 150.352 168.096 150.352C170.393 150.352 172.23 150.964 173.455 152.189C174.833 153.413 175.445 155.097 175.445 157.241C175.445 157.7 175.445 158.159 175.292 158.772C175.598 159.537 175.445 159.996 175.292 160.609ZM171.465 158.006C171.465 157.547 171.465 157.241 171.465 157.088C171.465 156.016 171.158 155.097 170.546 154.485C169.934 153.873 169.015 153.567 167.943 153.567C166.719 153.567 165.494 154.026 164.575 154.791C163.657 155.557 162.891 156.628 162.585 158.159H171.465V158.006Z" fill="#F27B21"/>
<path d="M183.253 165.049L180.957 175H176.058L181.722 150.965H186.009L185.396 154.026C186.315 152.955 187.233 152.189 188.458 151.577C189.53 150.965 190.755 150.812 192.132 150.812C194.276 150.812 195.96 151.424 197.185 152.802C198.409 154.027 199.022 155.864 199.022 158.16C199.022 161.222 198.103 163.671 196.419 165.662C194.582 167.652 192.439 168.57 189.683 168.57C188.152 168.57 186.927 168.264 185.856 167.652C184.631 167.039 183.865 166.121 183.253 165.049ZM193.97 158.16C193.97 156.935 193.663 155.864 192.898 155.251C192.286 154.639 191.367 154.18 190.142 154.18C188.611 154.18 187.233 154.945 186.162 156.17C184.937 157.548 184.478 159.079 184.478 160.916C184.478 162.14 184.784 163.212 185.549 163.978C186.315 164.743 187.233 165.202 188.458 165.202C189.989 165.202 191.214 164.59 192.439 163.212C193.357 161.681 193.97 159.997 193.97 158.16Z" fill="#F27B21"/>
<path d="M219.383 160.609H206.217V160.762C206.217 160.915 206.217 160.915 206.217 161.221C206.217 162.446 206.676 163.518 207.595 164.13C208.513 164.895 209.738 165.202 211.422 165.202C212.341 165.202 213.259 165.049 214.178 164.895C215.096 164.742 215.862 164.436 216.78 164.13L216.474 167.498C215.402 167.804 214.484 168.11 213.412 168.264C212.341 168.417 211.422 168.417 210.35 168.417C207.595 168.417 205.451 167.651 203.92 166.273C202.389 164.895 201.624 162.905 201.624 160.609C201.624 159.231 201.93 158.006 202.389 156.782C203.002 155.557 203.614 154.485 204.686 153.413C205.758 152.342 206.829 151.729 208.054 151.117C209.279 150.658 210.657 150.352 212.341 150.352C214.637 150.352 216.474 150.964 217.699 152.189C219.077 153.413 219.689 155.097 219.689 157.241C219.689 157.7 219.689 158.159 219.536 158.772C219.536 159.537 219.536 159.996 219.383 160.609ZM215.556 158.006C215.556 157.547 215.556 157.241 215.556 157.088C215.556 156.016 215.249 155.097 214.637 154.485C214.025 153.873 213.106 153.567 212.034 153.567C210.81 153.567 209.738 154.026 208.666 154.791C207.748 155.557 206.982 156.628 206.676 158.159H215.556V158.006Z" fill="#F27B21"/>
<path d="M241.275 160.304L239.438 168.111H234.539L236.683 159.232C236.683 158.926 236.836 158.62 236.836 158.16C236.836 157.854 236.836 157.548 236.836 157.242C236.836 156.323 236.53 155.711 236.07 155.098C235.611 154.639 234.846 154.333 233.927 154.333C232.549 154.333 231.324 154.792 230.406 155.864C229.487 156.936 228.722 158.313 228.262 160.304L226.425 168.111H221.526L225.507 151.118H229.947L229.181 154.18C230.1 153.108 231.171 152.343 232.243 151.73C233.468 151.118 234.692 150.965 235.917 150.965C237.754 150.965 239.132 151.424 240.204 152.496C241.275 153.567 241.735 154.945 241.735 156.629C241.735 157.242 241.735 157.854 241.582 158.466C241.582 158.926 241.429 159.538 241.275 160.304Z" fill="#F27B21"/>
<path d="M263.321 143.157H268.067L262.402 168.112H258.116L258.728 165.356C257.809 166.428 256.891 167.346 255.666 167.805C254.594 168.418 253.37 168.571 251.992 168.571C249.848 168.571 248.164 167.958 246.94 166.581C245.715 165.356 245.103 163.519 245.103 161.222C245.103 158.16 246.021 155.711 247.705 153.721C249.542 151.73 251.686 150.812 254.441 150.812C255.972 150.812 257.197 151.118 258.116 151.73C259.187 152.343 259.953 153.108 260.565 154.333L263.321 143.157ZM259.646 158.314C259.646 157.089 259.34 156.017 258.575 155.252C257.809 154.486 256.891 154.18 255.666 154.18C254.135 154.18 252.757 154.792 251.686 156.17C250.614 157.548 250.155 159.232 250.155 161.222C250.155 162.294 250.461 163.213 251.226 163.978C251.839 164.743 252.757 165.05 253.829 165.05C255.36 165.05 256.738 164.284 257.962 163.059C259.034 161.835 259.646 160.151 259.646 158.314Z" fill="#F27B21"/>
<path d="M285.366 158.619L284.295 163.671C284.142 164.59 283.835 165.508 283.835 166.121C283.682 166.733 283.529 167.499 283.529 167.958H279.549L280.008 165.355C279.243 166.274 278.324 167.039 277.252 167.499C276.181 167.958 274.956 168.264 273.731 168.264C271.894 168.264 270.516 167.805 269.291 166.886C268.22 165.968 267.607 164.743 267.607 163.365C267.607 161.375 268.526 159.997 270.363 158.925C272.2 157.854 274.803 157.241 278.018 157.241C278.324 157.241 278.783 157.241 279.243 157.241C279.702 157.241 280.314 157.241 281.233 157.394C281.233 157.241 281.233 157.088 281.233 156.935C281.233 156.782 281.233 156.782 281.233 156.629C281.233 155.557 280.927 154.792 280.161 154.332C279.549 153.72 278.477 153.567 277.252 153.567C276.334 153.567 275.415 153.72 274.497 153.873C273.578 154.026 272.66 154.332 271.588 154.792L272.2 151.577C273.119 151.271 274.19 150.964 275.262 150.811C276.181 150.658 277.252 150.658 278.324 150.658C280.774 150.658 282.611 151.117 283.835 152.036C285.06 152.955 285.826 154.332 285.826 156.17C285.826 156.476 285.826 156.782 285.672 157.241C285.519 157.701 285.519 158.16 285.366 158.619ZM280.467 159.844H280.314C279.549 159.844 278.936 159.691 278.63 159.691C276.487 159.691 274.803 159.997 273.731 160.456C272.66 161.069 272.2 161.834 272.2 163.059C272.2 163.824 272.506 164.284 272.966 164.743C273.425 165.202 274.19 165.355 275.109 165.355C276.487 165.355 277.712 164.896 278.783 163.824C279.702 162.906 280.314 161.681 280.467 159.844Z" fill="#F27B21"/>
<path d="M293.94 143.157H298.686L296.236 153.415C297.155 152.496 298.073 151.884 298.992 151.424C300.063 150.965 301.135 150.812 302.207 150.812C304.35 150.812 306.034 151.424 307.259 152.802C308.484 154.027 309.096 155.864 309.096 158.16C309.096 159.691 308.79 161.222 308.177 162.753C307.565 164.131 306.8 165.356 305.728 166.274C304.809 167.04 303.891 167.652 302.972 167.958C301.901 168.418 300.829 168.571 299.604 168.571C298.073 168.571 296.848 168.265 295.777 167.499C294.705 166.887 293.94 165.968 293.48 164.743L292.562 168.112H288.122L293.94 143.157ZM304.35 158.16C304.35 156.936 304.044 155.864 303.431 155.252C302.819 154.639 301.901 154.18 300.676 154.18C299.145 154.18 297.767 154.945 296.695 156.17C295.624 157.548 295.011 159.079 295.011 160.916C295.011 162.141 295.317 163.213 296.083 163.978C296.848 164.743 297.767 165.203 298.992 165.203C300.523 165.203 301.747 164.59 302.819 163.213C303.738 161.682 304.35 159.998 304.35 158.16Z" fill="#F27B21"/>
<path d="M317.362 143.157H322.261L316.444 167.958H311.545L317.362 143.157Z" fill="#F27B21"/>
<path d="M340.327 160.609H327.161V160.762C327.161 160.915 327.161 160.915 327.161 161.221C327.161 162.446 327.62 163.518 328.539 164.13C329.458 164.895 330.682 165.202 332.366 165.202C333.285 165.202 334.203 165.049 335.122 164.895C336.041 164.742 336.806 164.436 337.725 164.13L337.418 167.498C336.347 167.804 335.428 168.11 334.357 168.264C333.285 168.417 332.366 168.417 331.295 168.417C328.539 168.417 326.396 167.651 324.865 166.273C323.334 164.895 322.568 162.905 322.568 160.609C322.568 159.231 322.875 158.006 323.334 156.782C323.793 155.557 324.559 154.485 325.63 153.413C326.702 152.342 327.774 151.729 328.998 151.117C330.223 150.658 331.601 150.352 333.285 150.352C335.581 150.352 337.418 150.964 338.643 152.189C340.021 153.413 340.633 155.097 340.633 157.241C340.633 157.7 340.633 158.159 340.48 158.772C340.633 159.537 340.48 159.996 340.327 160.609ZM336.5 158.006C336.5 157.547 336.5 157.241 336.5 157.088C336.5 156.016 336.194 155.097 335.581 154.485C334.969 153.873 334.05 153.567 332.979 153.567C331.754 153.567 330.529 154.026 329.611 154.791C328.692 155.557 327.927 156.628 327.62 158.159H336.5V158.006Z" fill="#F27B21"/>
<path d="M358.852 155.711C358.852 154.333 359.311 153.261 360.383 152.343C361.454 151.424 362.679 150.965 364.057 150.965C365.435 150.965 366.812 151.424 367.731 152.343C368.803 153.261 369.262 154.486 369.262 155.711C369.262 157.089 368.803 158.16 367.731 159.079C366.659 159.997 365.435 160.457 364.057 160.457C362.526 160.457 361.301 159.997 360.383 159.079C359.311 158.16 358.852 156.936 358.852 155.711Z" fill="#F27B21"/>
<path d="M398.809 144.994H404.932L409.372 168.111H404.473L403.555 162.6H392.532L389.011 168.111H383.652L398.809 144.994ZM401.258 148.362L394.369 159.079H402.942L401.258 148.362Z" fill="#F27B21"/>
<path d="M428.968 143.31L428.05 146.372C427.744 146.218 427.284 146.218 426.978 146.065C426.672 146.065 426.366 145.912 426.06 145.912C425.294 145.912 424.682 146.218 424.069 146.678C423.457 147.137 423.151 147.902 422.845 148.668L422.232 150.964H426.978L426.213 154.179H421.467L418.252 167.958H413.353L416.568 154.179H412.894L413.659 150.964H417.486L418.252 148.056C418.711 146.372 419.477 144.994 420.854 144.075C422.079 143.157 423.763 142.697 425.753 142.697C426.366 142.697 426.978 142.697 427.437 142.85C427.897 143.003 428.356 143.157 428.968 143.31Z" fill="#F27B21"/>
<path d="M443.359 143.31L442.44 146.372C442.134 146.218 441.675 146.218 441.369 146.065C441.062 146.065 440.756 145.912 440.45 145.912C439.685 145.912 439.072 146.218 438.46 146.678C437.847 147.137 437.541 147.902 437.235 148.668L436.623 150.964H441.369L440.603 154.179H435.857L432.642 167.958H427.743L430.958 154.179H427.131L427.896 150.964H431.724L432.336 148.056C432.795 146.372 433.561 144.994 434.939 144.075C436.163 143.157 437.847 142.697 439.838 142.697C440.45 142.697 441.062 142.697 441.522 142.85C442.287 143.003 442.9 143.157 443.359 143.31Z" fill="#F27B21"/>
<path d="M452.698 150.658C455.301 150.658 457.444 151.424 458.975 152.802C460.506 154.179 461.271 156.17 461.271 158.466C461.271 159.844 460.965 161.069 460.506 162.446C459.894 163.671 459.128 164.743 458.056 165.661C456.985 166.58 455.913 167.345 454.535 167.805C453.157 168.264 451.78 168.57 450.095 168.57C447.34 168.57 445.196 167.958 443.666 166.58C442.135 165.202 441.369 163.365 441.369 160.915C441.369 157.854 442.441 155.404 444.431 153.567C446.574 151.577 449.33 150.658 452.698 150.658ZM456.372 158.16C456.372 156.782 456.066 155.71 455.301 154.945C454.535 154.179 453.464 153.72 452.239 153.72C450.708 153.72 449.33 154.486 448.105 155.71C446.881 157.088 446.268 158.619 446.268 160.609C446.268 161.987 446.727 163.212 447.493 163.977C448.258 164.896 449.33 165.202 450.555 165.202C452.239 165.202 453.464 164.59 454.688 163.212C455.913 161.834 456.372 160.15 456.372 158.16Z" fill="#F27B21"/>
<path d="M479.183 150.964L478.111 154.791C477.652 154.638 477.346 154.638 476.887 154.485C476.58 154.485 476.121 154.332 475.815 154.332C474.284 154.332 473.212 154.791 472.294 155.557C471.375 156.475 470.763 157.853 470.304 159.996L468.466 167.804H463.567L467.395 150.811H471.834L471.222 153.72C472.141 152.495 473.059 151.729 473.978 151.117C474.896 150.658 475.968 150.352 477.04 150.352C477.346 150.352 477.652 150.352 478.111 150.505C478.417 150.811 478.724 150.811 479.183 150.964Z" fill="#F27B21"/>
<path d="M497.095 143.157H501.841L496.177 168.112H491.89L492.502 165.356C491.584 166.428 490.665 167.346 489.44 167.805C488.369 168.418 487.144 168.571 485.766 168.571C483.623 168.571 481.939 167.958 480.714 166.581C479.489 165.356 478.877 163.519 478.877 161.222C478.877 158.16 479.795 155.711 481.48 153.721C483.317 151.73 485.46 150.812 488.216 150.812C489.747 150.812 490.971 151.118 491.89 151.73C492.962 152.343 493.727 153.108 494.339 154.333L497.095 143.157ZM493.421 158.314C493.421 157.089 493.115 156.017 492.349 155.252C491.584 154.486 490.665 154.18 489.44 154.18C487.909 154.18 486.532 154.792 485.46 156.17C484.388 157.548 483.929 159.232 483.929 161.222C483.929 162.294 484.235 163.213 485.001 163.978C485.613 164.743 486.532 165.05 487.603 165.05C489.134 165.05 490.512 164.284 491.737 163.059C492.808 161.835 493.421 160.151 493.421 158.314Z" fill="#F27B21"/>
<path d="M519.141 158.619L518.069 163.671C517.916 164.59 517.61 165.508 517.61 166.121C517.457 166.733 517.304 167.499 517.304 167.958H513.323L513.782 165.355C513.017 166.274 512.098 167.039 511.027 167.499C509.955 167.958 508.883 168.264 507.506 168.264C505.668 168.264 504.291 167.805 503.066 166.886C501.994 165.968 501.382 164.743 501.382 163.365C501.382 161.375 502.3 159.997 504.138 158.925C505.975 157.854 508.577 157.241 511.945 157.241C512.252 157.241 512.711 157.241 513.17 157.241C513.629 157.241 514.242 157.241 515.16 157.394C515.16 157.241 515.16 157.088 515.16 156.935C515.16 156.782 515.16 156.782 515.16 156.629C515.16 155.557 514.854 154.792 514.089 154.332C513.476 153.72 512.405 153.567 511.18 153.567C510.261 153.567 509.343 153.72 508.424 153.873C507.506 154.026 506.434 154.332 505.515 154.792L506.128 151.577C507.199 151.271 508.118 150.964 509.19 150.811C510.261 150.658 511.18 150.658 512.252 150.658C514.701 150.658 516.538 151.117 517.763 152.036C518.988 152.955 519.753 154.332 519.753 156.17C519.753 156.476 519.753 156.782 519.6 157.241C519.294 157.701 519.294 158.16 519.141 158.619ZM514.395 159.844H514.242C513.476 159.844 512.864 159.691 512.558 159.691C510.414 159.691 508.73 159.997 507.659 160.456C506.587 161.069 506.128 161.834 506.128 163.059C506.128 163.824 506.434 164.284 506.893 164.743C507.353 165.202 508.118 165.355 509.037 165.355C510.414 165.355 511.639 164.896 512.711 163.824C513.476 162.906 514.089 161.681 514.395 159.844Z" fill="#F27B21"/>
<path d="M527.867 143.157H532.613L530.163 153.415C531.082 152.496 532 151.884 532.919 151.424C533.837 150.965 535.062 150.812 536.134 150.812C538.277 150.812 539.961 151.424 541.186 152.802C542.411 154.027 543.023 155.864 543.023 158.16C543.023 159.691 542.717 161.222 542.104 162.753C541.492 164.131 540.727 165.356 539.655 166.274C538.736 167.04 537.818 167.652 536.899 167.958C535.828 168.418 534.756 168.571 533.531 168.571C532 168.571 530.775 168.265 529.704 167.499C528.632 166.887 527.867 165.968 527.407 164.743L526.642 168.112H522.202L527.867 143.157ZM538.124 158.16C538.124 156.936 537.818 155.864 537.205 155.252C536.593 154.639 535.674 154.18 534.45 154.18C532.919 154.18 531.541 154.945 530.469 156.17C529.244 157.548 528.785 159.079 528.785 160.916C528.785 162.141 529.091 163.213 529.857 163.978C530.622 164.743 531.541 165.203 532.766 165.203C534.297 165.203 535.521 164.59 536.593 163.213C537.512 161.682 538.124 159.998 538.124 158.16Z" fill="#F27B21"/>
<path d="M551.137 143.157H556.036L550.219 167.958H545.473L551.137 143.157Z" fill="#F27B21"/>
<path d="M574.101 160.609H560.782V160.762C560.782 160.915 560.782 160.915 560.782 161.221C560.782 162.446 561.242 163.518 562.16 164.13C563.079 164.895 564.303 165.202 565.987 165.202C566.906 165.202 567.825 165.049 568.743 164.895C569.662 164.742 570.427 164.436 571.346 164.13L571.04 167.498C569.968 167.804 569.049 168.11 567.978 168.264C566.906 168.417 565.987 168.417 564.916 168.417C562.16 168.417 560.017 167.651 558.486 166.273C556.955 164.895 556.189 162.905 556.189 160.609C556.189 159.231 556.496 158.006 556.955 156.782C557.567 155.557 558.18 154.485 559.251 153.413C560.323 152.342 561.395 151.729 562.619 151.117C563.844 150.658 565.222 150.352 566.906 150.352C569.202 150.352 571.04 150.964 572.264 152.189C573.642 153.413 574.255 155.097 574.255 157.241C574.255 157.7 574.255 158.159 574.101 158.772C574.408 159.537 574.255 159.996 574.101 160.609ZM570.274 158.006C570.274 157.547 570.274 157.241 570.274 157.088C570.274 156.016 569.968 155.097 569.356 154.485C568.743 153.873 567.825 153.567 566.753 153.567C565.528 153.567 564.303 154.026 563.385 154.791C562.466 155.557 561.701 156.628 561.395 158.159H570.274V158.006Z" fill="#F27B21"/>
<path d="M396.03 8.97248H399.814L408.712 30.7054H409.018L417.916 8.97248H421.7V35.1543H418.734V15.2623H418.479L410.297 35.1543H407.433L399.251 15.2623H398.996V35.1543H396.03V8.97248ZM429.131 35.1543H425.807L435.421 8.97248H438.694L448.307 35.1543H444.983L437.159 13.1145H436.955L429.131 35.1543ZM430.358 24.927H443.756V27.7395H430.358V24.927ZM455.556 8.97248V35.1543H452.385V8.97248H455.556ZM482.674 8.97248V35.1543H479.606L465.339 14.5975H465.083V35.1543H461.913V8.97248H464.981L479.299 29.5804H479.555V8.97248H482.674ZM489.018 35.1543V8.97248H492.189V32.3418H504.359V35.1543H489.018ZM512.439 8.97248V35.1543H509.268V8.97248H512.439ZM539.557 8.97248V35.1543H536.489L522.222 14.5975H521.966V35.1543H518.795V8.97248H521.864L536.182 29.5804H536.438V8.97248H539.557ZM545.901 35.1543V8.97248H561.702V11.785H549.071V20.6316H560.884V23.4441H549.071V32.3418H561.907V35.1543H545.901ZM567.417 35.1543V8.97248H576.263C578.309 8.97248 579.988 9.32191 581.3 10.0208C582.613 10.7111 583.584 11.6614 584.215 12.8716C584.846 14.0819 585.161 15.4583 585.161 17.0009C585.161 18.5435 584.846 19.9114 584.215 21.1046C583.584 22.2978 582.617 23.2353 581.313 23.9171C580.009 24.5904 578.343 24.927 576.314 24.927H569.155V22.0634H576.212C577.61 22.0634 578.735 21.8588 579.587 21.4498C580.448 21.0407 581.07 20.4611 581.453 19.7111C581.846 18.9526 582.042 18.0492 582.042 17.0009C582.042 15.9526 581.846 15.0364 581.453 14.2523C581.061 13.4682 580.435 12.8631 579.574 12.437C578.713 12.0023 577.576 11.785 576.161 11.785H570.587V35.1543H567.417ZM579.74 23.3929L586.184 35.1543H582.502L576.161 23.3929H579.74Z" fill="black"/>
<defs>
<linearGradient id="paint0_linear_303_82" x1="26.4469" y1="25.1565" x2="62.1071" y2="54.3331" gradientUnits="userSpaceOnUse">
<stop stop-color="#F5893D"/>
<stop offset="1" stop-color="#FABD91"/>
</linearGradient>
<linearGradient id="paint1_linear_303_82" x1="17.0881" y1="9.42528" x2="63.2335" y2="60.6749" gradientUnits="userSpaceOnUse">
<stop stop-color="#F8A871"/>
<stop offset="1" stop-color="white"/>
</linearGradient>
<linearGradient id="paint2_linear_303_82" x1="13.0655" y1="12.6668" x2="59.2622" y2="63.973" gradientUnits="userSpaceOnUse">
<stop stop-color="#F8A871"/>
<stop offset="1" stop-color="white"/>
</linearGradient>
<linearGradient id="paint3_linear_303_82" x1="33.3354" y1="95.8251" x2="33.3354" y2="58.449" gradientUnits="userSpaceOnUse">
<stop stop-color="#FBB784"/>
<stop offset="1" stop-color="#F37821"/>
</linearGradient>
<linearGradient id="paint4_linear_303_82" x1="346.98" y1="95.8424" x2="346.98" y2="58.4786" gradientUnits="userSpaceOnUse">
<stop stop-color="#FBB784"/>
<stop offset="1" stop-color="#F37821"/>
</linearGradient>
<linearGradient id="paint5_linear_303_82" x1="558.462" y1="95.8435" x2="558.462" y2="58.4526" gradientUnits="userSpaceOnUse">
<stop stop-color="#FBB784"/>
<stop offset="1" stop-color="#F37821"/>
</linearGradient>
<linearGradient id="paint6_linear_303_82" x1="495.832" y1="96.4441" x2="495.832" y2="59.0532" gradientUnits="userSpaceOnUse">
<stop stop-color="#FBB784"/>
<stop offset="1" stop-color="#F37821"/>
</linearGradient>
<linearGradient id="paint7_linear_303_82" x1="416.773" y1="95.8435" x2="416.773" y2="58.4526" gradientUnits="userSpaceOnUse">
<stop stop-color="#FBB784"/>
<stop offset="1" stop-color="#F37821"/>
</linearGradient>
<linearGradient id="paint8_linear_303_82" x1="280.667" y1="95.8435" x2="280.667" y2="58.4526" gradientUnits="userSpaceOnUse">
<stop stop-color="#FBB784"/>
<stop offset="1" stop-color="#F37821"/>
</linearGradient>
<linearGradient id="paint9_linear_303_82" x1="221.333" y1="95.8435" x2="221.333" y2="58.4526" gradientUnits="userSpaceOnUse">
<stop stop-color="#FBB784"/>
<stop offset="1" stop-color="#F37821"/>
</linearGradient>
<linearGradient id="paint10_linear_303_82" x1="164.509" y1="95.8435" x2="164.509" y2="58.4526" gradientUnits="userSpaceOnUse">
<stop stop-color="#FBB784"/>
<stop offset="1" stop-color="#F37821"/>
</linearGradient>
<linearGradient id="paint11_linear_303_82" x1="93.5251" y1="95.8435" x2="93.5251" y2="58.4526" gradientUnits="userSpaceOnUse">
<stop stop-color="#FBB784"/>
<stop offset="1" stop-color="#F37821"/>
</linearGradient>
</defs>
</svg>
